<svg width="1728" height="969" viewBox="0 0 1728 969" fill="none" xmlns="http://www.w3.org/2000/svg">
<g clip-path="url(#clip0_686_4372)">
<rect width="1728" height="969" fill="white"/>
<path fill-rule="evenodd" clip-rule="evenodd" d="M1454.61 147C1500.58 147 1539.97 172.9 1556.43 209.685C1572.59 197.707 1591.35 190.854 1611.35 190.854C1663.3 190.854 1706.84 237.079 1718.39 299.246C1742.93 302.627 1762 328.256 1762 359.37C1762 392.785 1740 419.873 1712.87 419.873C1708.08 419.873 1703.46 419.032 1699.09 417.463C1679 451.493 1647.17 473.473 1611.35 473.473C1599.9 473.473 1588.85 471.225 1578.47 467.056C1559.28 496.672 1524.09 516.514 1483.85 516.514C1448.42 516.514 1416.91 501.134 1396.78 477.243C1384.54 482.604 1370.49 485.654 1355.53 485.654C1308.21 485.654 1269.85 455.112 1269.85 417.436C1269.85 408.119 1272.2 399.238 1276.45 391.148C1246.14 371.968 1226 337.991 1226 299.273C1226 239.395 1274.18 190.854 1333.61 190.854C1343.18 190.854 1352.47 192.115 1361.31 194.481C1380.76 165.962 1415.28 147 1454.61 147Z" fill="#0002EA"/>
<path fill-rule="evenodd" clip-rule="evenodd" d="M281.807 442.714C227.72 457.843 173.939 444.207 144.005 411.847C128.428 429.467 108.329 442.677 84.7951 449.26C23.6741 466.356 -40.8332 433.214 -72.2813 373.173C-102.119 377.775 -131.922 357.732 -140.86 325.778C-150.458 291.462 -132.358 256.404 -100.431 247.474C-94.8045 245.9 -89.1242 245.243 -83.5311 245.416C-69.6644 203.855 -38.5348 170.809 3.61217 159.02C17.0882 155.251 30.7289 153.924 44.1435 154.788C58.2155 118.058 93.9226 86.0989 141.264 72.8571C182.945 61.1985 224.444 66.6225 254.988 84.5333C267.844 75.0012 283.508 67.2428 301.1 62.3219C356.775 46.7493 410.681 65.4912 421.503 104.183C424.18 113.751 423.971 123.643 421.298 133.349C462.462 143.073 495.922 171.338 507.044 211.1C524.244 272.592 481.504 338.297 411.582 357.855C400.313 361.007 389.026 362.768 377.948 363.247C363.248 398.937 328.086 429.769 281.807 442.714Z" fill="#0002EA"/>
<path fill-rule="evenodd" clip-rule="evenodd" d="M1109.4 642C1079.28 642 1053.47 658.97 1042.69 683.071C1032.1 675.224 1019.81 670.734 1006.7 670.734C972.668 670.734 944.141 701.02 936.572 741.75C920.497 743.966 908 760.758 908 781.144C908 803.037 922.413 820.786 940.192 820.786C943.325 820.786 946.354 820.234 949.217 819.207C962.383 841.503 983.234 855.905 1006.7 855.905C1014.21 855.905 1021.45 854.433 1028.25 851.701C1040.82 871.105 1063.88 884.106 1090.24 884.106C1113.46 884.106 1134.1 874.028 1147.29 858.375C1155.31 861.888 1164.52 863.886 1174.32 863.886C1205.32 863.886 1230.45 843.875 1230.45 819.189C1230.45 813.085 1228.92 807.266 1226.13 801.966C1245.99 789.399 1259.19 767.137 1259.19 741.769C1259.19 702.537 1227.62 670.734 1188.68 670.734C1182.41 670.734 1176.33 671.56 1170.53 673.11C1157.79 654.424 1135.17 642 1109.4 642Z" fill="#0002EA"/>
<path fill-rule="evenodd" clip-rule="evenodd" d="M238.89 655.9C234.298 659.652 228.632 661.867 222.502 661.867C215.387 661.867 208.896 658.881 203.985 653.972C199.823 656.097 194.953 657.318 189.749 657.318C174.424 657.318 162 646.727 162 633.663C162 620.599 174.424 610.008 189.749 610.008C193.611 610.008 197.289 610.68 200.63 611.895C205.708 604.655 213.618 600 222.502 600C234.661 600 244.994 608.718 248.744 620.852C252.052 620.988 255.463 621.834 258.717 623.457C269.58 628.875 274.581 640.897 269.886 650.31C265.192 659.722 252.58 662.961 241.717 657.543C240.725 657.048 239.781 656.498 238.89 655.9Z" fill="#0002EA"/>
<path fill-rule="evenodd" clip-rule="evenodd" d="M1554.89 908.9C1550.3 912.652 1544.63 914.867 1538.5 914.867C1531.39 914.867 1524.9 911.881 1519.98 906.972C1515.82 909.097 1510.95 910.318 1505.75 910.318C1490.42 910.318 1478 899.727 1478 886.663C1478 873.599 1490.42 863.008 1505.75 863.008C1509.61 863.008 1513.29 863.68 1516.63 864.895C1521.71 857.655 1529.62 853 1538.5 853C1550.66 853 1560.99 861.718 1564.74 873.852C1568.05 873.988 1571.46 874.834 1574.72 876.457C1585.58 881.875 1590.58 893.897 1585.89 903.31C1581.19 912.722 1568.58 915.961 1557.72 910.543C1556.72 910.048 1555.78 909.498 1554.89 908.9Z" fill="#0002EA"/>
<path fill-rule="evenodd" clip-rule="evenodd" d="M957.74 95.784C962.203 94.9663 966.836 94.5358 971.586 94.5358C1007.81 94.5358 1037.18 119.569 1037.18 150.449C1037.18 181.328 1007.81 206.361 971.586 206.361C962.458 206.361 953.765 204.772 945.868 201.9C933.863 219.015 915.168 230.017 894.168 230.017C865.428 230.017 841.006 209.411 832.141 180.729C824.322 180.407 816.26 178.407 808.569 174.571C782.892 161.765 771.072 133.348 782.168 111.1C792.384 90.6177 818.461 82.5047 842.572 91.3389C851.897 74.8904 874.232 63.5491 900.094 64.0139C927.172 64.5005 949.921 77.7822 957.74 95.784Z" fill="#0002EA"/>
</g>
<defs>
<clipPath id="clip0_686_4372">
<rect width="1728" height="969" fill="white"/>
</clipPath>
</defs>
</svg>
