<svg width="1728" height="1000" viewBox="0 0 1728 1000" fill="none" xmlns="http://www.w3.org/2000/svg">
<g clip-path="url(#clip0_686_4372)">
<rect width="1728" height="1000" fill="white"/>
<circle cx="336.5" cy="1049.5" r="585.5" fill="#FFC823"/>
<path fill-rule="evenodd" clip-rule="evenodd" d="M1510.25 151.999C1555.54 151.999 1594.35 177.518 1610.57 213.761C1626.49 201.959 1644.97 195.207 1664.68 195.207C1715.86 195.207 1758.76 240.751 1770.14 302.003C1794.32 305.334 1813.11 330.586 1813.11 361.242C1813.11 394.165 1791.44 420.855 1764.7 420.855C1759.99 420.855 1755.43 420.026 1751.13 418.48C1731.33 452.009 1699.97 473.665 1664.68 473.665C1653.39 473.665 1642.51 471.451 1632.28 467.343C1613.37 496.523 1578.7 516.074 1539.05 516.074C1504.15 516.074 1473.1 500.919 1453.27 477.381C1441.21 482.663 1427.36 485.668 1412.63 485.668C1366 485.668 1328.21 455.575 1328.21 418.454C1328.21 409.274 1330.52 400.524 1334.71 392.552C1304.85 373.655 1285 340.178 1285 302.029C1285 243.033 1332.47 195.207 1391.02 195.207C1400.46 195.207 1409.61 196.449 1418.32 198.78C1437.49 170.682 1471.49 151.999 1510.25 151.999Z" fill="#0002EA"/>
<path fill-rule="evenodd" clip-rule="evenodd" d="M248.574 329.556C216.07 331.869 187.083 317.866 173.829 295.992C162.926 304.198 149.966 309.371 135.823 310.377C99.0907 312.991 66.2735 286.653 55.3761 248.867C37.8801 248.014 23.2685 233.157 21.9019 213.954C20.4343 193.332 34.7986 175.507 53.9854 174.141C57.3669 173.901 60.6726 174.187 63.8321 174.936C76.5455 152.923 98.0817 137.757 123.41 135.955C131.508 135.379 139.416 136.209 146.941 138.26C159.21 119.016 183.222 104.999 211.673 102.974C236.721 101.192 259.681 109.099 274.962 122.831C283.378 118.907 293.184 116.317 303.756 115.565C337.214 113.184 365.678 130.103 367.333 153.355C367.742 159.106 366.474 164.705 363.826 169.912C386.096 180.224 401.831 200.18 403.531 224.076C406.161 261.03 374.229 293.412 332.208 296.402C325.436 296.884 318.816 296.573 312.462 295.558C299.958 314.137 276.386 327.577 248.574 329.556Z" fill="#0002EA"/>
<path fill-rule="evenodd" clip-rule="evenodd" d="M960.73 941.339C950.414 949.483 937.687 954.292 923.917 954.292C907.932 954.292 893.352 947.811 882.318 937.155C872.968 941.767 862.029 944.418 850.338 944.418C815.91 944.418 788 921.429 788 893.071C788 864.713 815.91 841.724 850.338 841.724C859.013 841.724 867.275 843.184 874.78 845.822C886.19 830.104 903.958 820 923.917 820C951.232 820 974.444 838.923 982.87 865.263C990.301 865.559 997.963 867.395 1005.27 870.918C1029.68 882.678 1040.91 908.775 1030.36 929.206C1019.82 949.637 991.486 956.666 967.082 944.906C964.853 943.831 962.733 942.637 960.73 941.339Z" fill="#0002EA"/>
<path fill-rule="evenodd" clip-rule="evenodd" d="M440.047 114.028C443.447 118.74 448.07 121.951 453.494 122.84C459.792 123.872 466.063 121.594 471.277 117.013C474.585 119.908 478.679 121.931 483.285 122.686C496.847 124.909 509.714 115.291 512.023 101.204C514.332 87.1164 505.209 73.8943 491.646 71.6714C488.228 71.1112 484.855 71.303 481.683 72.1286C478.468 63.5837 472.291 57.4172 464.428 56.1285C453.668 54.3649 442.983 62.2664 437.519 74.8068C434.568 74.474 431.4 74.8917 428.233 76.1697C417.662 80.4361 411.112 92.6746 413.603 103.505C416.094 114.335 426.683 119.657 437.254 115.39C438.22 115 439.152 114.544 440.047 114.028Z" fill="#0002EA"/>
<path fill-rule="evenodd" clip-rule="evenodd" d="M739.997 204.404C742.679 203.879 745.462 203.603 748.316 203.603C770.082 203.603 787.726 219.674 787.726 239.499C787.726 259.323 770.082 275.394 748.316 275.394C742.832 275.394 737.609 274.374 732.864 272.53C725.651 283.518 714.418 290.581 701.8 290.581C684.532 290.581 669.857 277.352 664.53 258.939C659.833 258.732 654.989 257.448 650.367 254.986C634.94 246.764 627.837 228.521 634.505 214.238C640.643 201.088 656.311 195.879 670.798 201.551C676.401 190.991 689.821 183.71 705.36 184.008C721.63 184.321 735.299 192.847 739.997 204.404Z" fill="#0002EA"/>
</g>
<defs>
<clipPath id="clip0_686_4372">
<rect width="1728" height="1000" fill="white"/>
</clipPath>
</defs>
</svg>
