<svg width="1728" height="969" viewBox="0 0 1728 969" fill="none" xmlns="http://www.w3.org/2000/svg">
<g clip-path="url(#clip0_686_4372)">
<rect width="1728" height="969" fill="white"/>
<circle cx="378.5" cy="1102.5" r="585.5" fill="#FFC823"/>
<path fill-rule="evenodd" clip-rule="evenodd" d="M1470.3 257C1524.86 257 1571.6 287.736 1591.13 331.39C1610.31 317.176 1632.57 309.043 1656.31 309.043C1717.96 309.043 1769.63 363.9 1783.34 437.675C1812.45 441.687 1835.09 472.102 1835.09 509.026C1835.09 548.681 1808.98 580.827 1776.78 580.827C1771.1 580.827 1765.62 579.829 1760.43 577.967C1736.59 618.351 1698.82 644.435 1656.31 644.435C1642.72 644.435 1629.61 641.769 1617.29 636.82C1594.51 671.967 1552.75 695.514 1505 695.514C1462.96 695.514 1425.56 677.261 1401.67 648.91C1387.15 655.272 1370.47 658.891 1352.72 658.891C1296.57 658.891 1251.04 622.646 1251.04 577.935C1251.04 566.878 1253.83 556.339 1258.87 546.738C1222.9 523.977 1199 483.655 1199 437.707C1199 366.648 1256.17 309.043 1326.7 309.043C1338.07 309.043 1349.08 310.539 1359.57 313.347C1382.66 279.503 1423.62 257 1470.3 257Z" fill="#0002EA"/>
<path fill-rule="evenodd" clip-rule="evenodd" d="M356.493 330.727C317.181 333.525 282.123 316.589 266.093 290.133C252.907 300.057 237.232 306.314 220.127 307.531C175.703 310.693 136.013 278.839 122.833 233.14C101.672 232.109 84 214.14 82.3473 190.915C80.5723 165.974 97.9449 144.416 121.15 142.764C125.24 142.473 129.237 142.82 133.058 143.725C148.434 117.101 174.481 98.7584 205.114 96.5784C214.909 95.8814 224.474 96.8865 233.575 99.3668C248.413 76.093 277.454 59.1406 311.863 56.6919C342.158 54.536 369.926 64.099 388.407 80.7068C398.586 75.9609 410.445 72.8291 423.232 71.9192C463.697 69.0395 498.123 89.5026 500.124 117.625C500.619 124.579 499.085 131.35 495.883 137.647C522.816 150.119 541.847 174.255 543.904 203.155C547.084 247.849 508.464 287.013 457.643 290.629C449.452 291.212 441.445 290.836 433.761 289.608C418.638 312.079 390.13 328.333 356.493 330.727Z" fill="#0002EA"/>
<path fill-rule="evenodd" clip-rule="evenodd" d="M993.73 915.339C983.414 923.483 970.687 928.292 956.917 928.292C940.932 928.292 926.352 921.811 915.318 911.155C905.968 915.767 895.029 918.418 883.338 918.418C848.91 918.418 821 895.429 821 867.071C821 838.713 848.91 815.724 883.338 815.724C892.013 815.724 900.275 817.184 907.78 819.822C919.19 804.104 936.958 794 956.917 794C984.232 794 1007.44 812.923 1015.87 839.263C1023.3 839.559 1030.96 841.395 1038.27 844.918C1062.68 856.678 1073.91 882.775 1063.36 903.206C1052.82 923.637 1024.49 930.666 1000.08 918.906C997.853 917.831 995.733 916.637 993.73 915.339Z" fill="#0002EA"/>
<path fill-rule="evenodd" clip-rule="evenodd" d="M66.0465 373.028C69.4473 377.74 74.0697 380.951 79.4944 381.84C85.7918 382.872 92.0633 380.594 97.2775 376.013C100.585 378.908 104.679 380.931 109.285 381.686C122.847 383.909 135.714 374.291 138.023 360.203C140.332 346.116 131.209 332.894 117.646 330.671C114.228 330.111 110.855 330.303 107.683 331.128C104.468 322.584 98.2911 316.417 90.4283 315.129C79.668 313.365 68.9833 321.266 63.5195 333.806C60.5679 333.474 57.3999 333.891 54.2335 335.169C43.6623 339.436 37.112 351.674 39.603 362.505C42.094 373.335 52.6829 378.656 63.2541 374.39C64.2198 374 65.1518 373.544 66.0465 373.028Z" fill="#0002EA"/>
<path fill-rule="evenodd" clip-rule="evenodd" d="M1116.65 64.7399C1119.77 64.1291 1123 63.8076 1126.33 63.8076C1151.65 63.8076 1172.18 82.5051 1172.18 105.57C1172.18 128.634 1151.65 147.332 1126.33 147.332C1119.94 147.332 1113.87 146.144 1108.35 143.999C1099.96 156.783 1086.89 165 1072.21 165C1052.12 165 1035.04 149.609 1028.85 128.187C1023.38 127.946 1017.75 126.452 1012.37 123.587C994.42 114.022 986.157 92.797 993.914 76.1797C1001.06 60.881 1019.28 54.8213 1036.14 61.4198C1042.66 49.1342 1058.27 40.6633 1076.35 41.0105C1095.28 41.374 1111.18 51.2942 1116.65 64.7399Z" fill="#0002EA"/>
</g>
<defs>
<clipPath id="clip0_686_4372">
<rect width="1728" height="969" fill="white"/>
</clipPath>
</defs>
</svg>
