<svg width="1728" height="1000" viewBox="0 0 1728 1000" fill="none" xmlns="http://www.w3.org/2000/svg">
<g clip-path="url(#clip0_686_4372)">
<rect width="1728" height="1000" fill="white"/>
<circle cx="370" cy="967" r="518" fill="#FFC823"/>
<path fill-rule="evenodd" clip-rule="evenodd" d="M1515.6 144.999C1557.4 144.999 1593.22 168.55 1608.18 201.998C1622.88 191.107 1639.94 184.875 1658.12 184.875C1705.36 184.875 1744.95 226.907 1755.46 283.436C1777.77 286.511 1795.11 309.815 1795.11 338.107C1795.11 368.492 1775.11 393.123 1750.43 393.123C1746.08 393.123 1741.88 392.358 1737.91 390.932C1719.64 421.875 1690.7 441.861 1658.12 441.861C1647.71 441.861 1637.67 439.818 1628.22 436.027C1610.77 462.957 1578.77 481 1542.19 481C1509.97 481 1481.31 467.014 1463.01 445.291C1451.89 450.165 1439.1 452.938 1425.51 452.938C1382.48 452.938 1347.6 425.166 1347.6 390.907C1347.6 382.435 1349.73 374.36 1353.59 367.003C1326.04 349.563 1307.72 318.667 1307.72 283.46C1307.72 229.013 1351.53 184.875 1405.57 184.875C1414.28 184.875 1422.72 186.021 1430.76 188.172C1448.45 162.241 1479.83 144.999 1515.6 144.999Z" fill="#0002EA"/>
<path fill-rule="evenodd" clip-rule="evenodd" d="M150.117 288.992C163.372 310.866 192.358 324.869 224.863 322.556C252.675 320.577 276.246 307.137 288.751 288.558C295.104 289.573 301.725 289.884 308.496 289.402C350.517 286.412 382.45 254.03 379.82 217.076C378.119 193.18 362.384 173.224 340.114 162.912C342.762 157.705 344.031 152.106 343.621 146.355C341.967 123.103 313.502 106.184 280.044 108.565C269.472 109.317 259.666 111.907 251.25 115.831C235.969 102.099 213.01 94.1919 187.961 95.9745C159.511 97.9991 135.498 112.016 123.23 131.26C115.705 129.209 107.797 128.379 99.6982 128.955C56.7261 132.013 24.6691 173.538 28.0967 221.703C31.5244 269.869 69.1388 306.435 112.111 303.377C126.254 302.371 139.215 297.198 150.117 288.992Z" fill="#0002EA"/>
<path fill-rule="evenodd" clip-rule="evenodd" d="M929.147 956.557C920.598 963.306 910.051 967.292 898.639 967.292C885.392 967.292 873.309 961.921 864.165 953.09C856.416 956.912 847.35 959.109 837.661 959.109C809.13 959.109 786 940.058 786 916.557C786 893.055 809.13 874.004 837.661 874.004C844.851 874.004 851.697 875.214 857.917 877.399C867.373 864.373 882.098 856 898.639 856C921.276 856 940.512 871.682 947.495 893.51C953.653 893.755 960.003 895.278 966.06 898.197C986.284 907.943 995.594 929.57 986.855 946.502C978.115 963.434 954.635 969.259 934.411 959.513C932.563 958.623 930.807 957.633 929.147 956.557Z" fill="#0002EA"/>
<path fill-rule="evenodd" clip-rule="evenodd" d="M440.047 107.028C443.447 111.74 448.07 114.951 453.494 115.84C459.792 116.872 466.063 114.594 471.277 110.013C474.585 112.908 478.679 114.931 483.285 115.686C496.847 117.909 509.714 108.291 512.023 94.2037C514.332 80.1164 505.209 66.8943 491.646 64.6714C488.228 64.1112 484.855 64.303 481.683 65.1286C478.468 56.5837 472.291 50.4172 464.428 49.1285C453.668 47.3649 442.983 55.2664 437.519 67.8068C434.568 67.474 431.4 67.8917 428.233 69.1697C417.662 73.4361 411.112 85.6746 413.603 96.5051C416.094 107.335 426.683 112.657 437.254 108.39C438.22 108 439.152 107.544 440.047 107.028Z" fill="#0002EA"/>
<path fill-rule="evenodd" clip-rule="evenodd" d="M726.317 194.82C728.659 194.361 731.09 194.12 733.582 194.12C752.591 194.12 768 208.155 768 225.469C768 242.782 752.591 256.817 733.582 256.817C728.792 256.817 724.231 255.926 720.087 254.316C713.788 263.912 703.978 270.08 692.958 270.08C677.877 270.08 665.062 258.527 660.41 242.446C656.307 242.266 652.077 241.144 648.041 238.994C634.567 231.814 628.365 215.881 634.187 203.407C639.548 191.923 653.232 187.375 665.883 192.328C670.777 183.105 682.497 176.747 696.068 177.007C710.276 177.28 722.214 184.727 726.317 194.82Z" fill="#0002EA"/>
</g>
<defs>
<clipPath id="clip0_686_4372">
<rect width="1728" height="1000" fill="white"/>
</clipPath>
</defs>
</svg>
