<svg width="1248" height="1117" viewBox="0 0 1248 1117" fill="none" xmlns="http://www.w3.org/2000/svg">
<g clip-path="url(#clip0_698_4422)">
<rect width="1248" height="1117" fill="white"/>
<path fill-rule="evenodd" clip-rule="evenodd" d="M1092.61 40C1138.58 40 1177.97 65.9001 1194.43 102.685C1210.59 90.7075 1229.35 83.8543 1249.35 83.8543C1301.3 83.8543 1344.84 130.079 1356.39 192.246C1380.93 195.627 1400 221.256 1400 252.37C1400 285.785 1378 312.873 1350.87 312.873C1346.08 312.873 1341.46 312.032 1337.09 310.463C1317 344.493 1285.17 366.473 1249.35 366.473C1237.9 366.473 1226.85 364.225 1216.47 360.056C1197.28 389.672 1162.09 409.514 1121.85 409.514C1086.42 409.514 1054.91 394.134 1034.78 370.243C1022.54 375.604 1008.49 378.654 993.533 378.654C946.214 378.654 907.855 348.112 907.855 310.436C907.855 301.119 910.2 292.238 914.448 284.148C884.144 264.968 864 230.991 864 192.273C864 132.395 912.177 83.8543 971.606 83.8543C981.183 83.8543 990.469 85.115 999.307 87.4806C1018.76 58.9623 1053.28 40 1092.61 40Z" fill="#0002EA"/>
<path fill-rule="evenodd" clip-rule="evenodd" d="M101.4 40C71.2805 40 45.4744 56.9698 34.6893 81.0714C24.0992 73.2238 11.8103 68.7337 -1.29518 68.7337C-35.3316 68.7337 -63.8596 99.0196 -71.4281 139.75C-87.5031 141.966 -100 158.758 -100 179.144C-100 201.037 -85.5871 218.786 -67.8079 218.786C-64.6748 218.786 -61.6463 218.234 -58.7828 217.207C-45.6172 239.503 -24.7659 253.905 -1.29518 253.905C6.20935 253.905 13.4461 252.433 20.2494 249.701C32.8232 269.105 55.8816 282.106 82.2448 282.106C105.456 282.106 126.105 272.028 139.292 256.375C147.309 259.888 156.52 261.886 166.317 261.886C197.32 261.886 222.453 241.875 222.453 217.189C222.453 211.085 220.916 205.266 218.134 199.966C237.989 187.399 251.187 165.137 251.187 139.769C251.187 100.537 219.621 68.7337 180.683 68.7337C174.408 68.7337 168.325 69.5596 162.534 71.1095C149.786 52.4242 127.172 40 101.4 40Z" fill="#0002EA"/>
<path fill-rule="evenodd" clip-rule="evenodd" d="M406.89 306.9C402.298 310.652 396.632 312.867 390.502 312.867C383.387 312.867 376.896 309.881 371.985 304.972C367.823 307.097 362.953 308.318 357.749 308.318C342.424 308.318 330 297.727 330 284.663C330 271.599 342.424 261.008 357.749 261.008C361.611 261.008 365.289 261.68 368.63 262.895C373.708 255.655 381.618 251 390.502 251C402.661 251 412.994 259.718 416.744 271.852C420.052 271.988 423.463 272.834 426.717 274.457C437.58 279.875 442.581 291.897 437.886 301.31C433.192 310.722 420.58 313.961 409.717 308.543C408.725 308.048 407.781 307.498 406.89 306.9Z" fill="#0002EA"/>
<path fill-rule="evenodd" clip-rule="evenodd" d="M619.435 -36.8952C630.289 -45.7633 643.68 -51 658.168 -51C674.988 -51 690.329 -43.9426 701.938 -32.3392C711.776 -37.3609 723.285 -40.2474 735.586 -40.2474C771.81 -40.2474 801.176 -15.2144 801.176 15.6654C801.176 46.5451 771.81 71.5781 735.586 71.5781C726.458 71.5781 717.765 69.9886 709.868 67.1165C697.863 84.2316 679.168 95.2334 658.168 95.2334C629.428 95.2334 605.006 74.6277 596.141 45.9462C588.322 45.6241 580.26 43.6239 572.569 39.7881C546.892 26.982 535.072 -1.43504 546.168 -23.6831C557.264 -45.9311 587.075 -53.5852 612.751 -40.7791C615.097 -39.6092 617.327 -38.3091 619.435 -36.8952Z" fill="#0002EA"/>
</g>
<defs>
<clipPath id="clip0_698_4422">
<rect width="1248" height="1117" fill="white"/>
</clipPath>
</defs>
</svg>
