<svg width="724" height="1117" viewBox="0 0 724 1117" fill="none" xmlns="http://www.w3.org/2000/svg">
<g clip-path="url(#clip0_682_4264)">
<rect width="724" height="1117" fill="white"/>
<path fill-rule="evenodd" clip-rule="evenodd" d="M626.154 346.516C639.068 357.821 660.438 362.122 682.089 356.134C704.642 349.898 721.199 334.24 725.737 317.093C733.242 317.785 741.181 317.131 749.123 314.934C779.009 306.669 797.633 279.703 790.72 254.703C783.806 229.702 753.973 216.136 724.087 224.4C721.471 225.124 718.941 225.991 716.507 226.987C708.056 209.961 692.917 199.936 679.28 203.707C674.812 204.942 670.966 207.532 667.867 211.123C656.698 202.095 640.984 198.471 625.479 202.758C609.368 207.214 597.452 219.115 592.862 233.305C583.494 232.415 572.344 234.939 561.937 241.017C546.806 249.853 537.644 263.632 537.773 275.454C536.408 275.658 535.04 275.947 533.674 276.325C516.389 281.105 506.046 298.249 510.573 314.618C515.042 330.779 532.334 340.142 549.407 335.777C563.054 352.82 588.211 360.294 612.414 352.684C617.359 351.129 621.959 349.04 626.154 346.516Z" fill="#0002EA"/>
<path fill-rule="evenodd" clip-rule="evenodd" d="M108.444 69C82.0567 69 59.4483 83.867 49.9996 104.982C40.7217 98.1067 29.9556 94.173 18.474 94.173C-11.3451 94.173 -36.3382 120.706 -42.9687 156.39C-57.0517 158.331 -68 173.043 -68 190.903C-68 210.083 -55.373 225.632 -39.7969 225.632C-37.052 225.632 -34.3987 225.149 -31.8899 224.249C-20.3557 243.782 -2.08823 256.399 18.474 256.399C25.0486 256.399 31.3886 255.109 37.349 252.716C48.3647 269.716 68.5659 281.106 91.6623 281.106C111.997 281.106 130.087 272.277 141.641 258.564C148.664 261.641 156.734 263.392 165.317 263.392C192.478 263.392 214.497 245.86 214.497 224.234C214.497 218.885 213.151 213.788 210.713 209.144C228.108 198.135 239.67 178.631 239.67 156.406C239.67 122.036 212.016 94.173 177.903 94.173C172.406 94.173 167.076 94.8966 162.003 96.2545C150.834 79.8846 131.023 69 108.444 69Z" fill="#0002EA"/>
<path fill-rule="evenodd" clip-rule="evenodd" d="M494.757 107.255C489.396 111.634 482.783 114.221 475.628 114.221C467.321 114.221 459.744 110.735 454.011 105.005C449.152 107.485 443.468 108.91 437.393 108.91C419.503 108.91 405 96.5471 405 81.2964C405 66.0458 419.503 53.6826 437.393 53.6826C441.901 53.6826 446.194 54.4677 450.094 55.8861C456.023 47.4334 465.256 42 475.628 42C489.822 42 501.883 52.1767 506.261 66.3418C510.123 66.5009 514.104 67.4887 517.903 69.3831C530.584 75.7077 536.421 89.7421 530.941 100.73C525.461 111.717 510.739 115.498 498.058 109.173C496.899 108.595 495.798 107.953 494.757 107.255Z" fill="#0002EA"/>
<path fill-rule="evenodd" clip-rule="evenodd" d="M663.967 1002.89H-73.2095V1213H1077.65L663.967 1002.89ZM1280.68 1048.92H1058.21V1124.47H1280.68V1048.92Z" fill="#FFB47F"/>
<path d="M268.133 894.916C269.619 894.419 271.259 894.807 272.366 895.917L283.196 906.774C285.67 909.255 288.575 911.265 291.768 912.706L294.67 914.015C300.646 916.711 307.128 918.105 313.684 918.105H323.895H336.494H347.748C349.976 918.105 352.134 917.333 353.857 915.92V915.92C357.613 912.839 363.076 913.038 366.599 916.383L367.708 917.437C368.176 917.882 368.687 918.289 369.224 918.648V918.648C371.147 919.933 373.426 920.632 375.739 920.632H378.305C380.376 920.632 382.435 920.951 384.409 921.578L392.168 924.045C396.463 925.41 400.943 926.105 405.45 926.105V926.105C410.673 926.105 415.855 925.172 420.75 923.349L428.047 920.632L433.823 918.894C435.536 918.379 437.36 918.367 439.08 918.86V918.86C442.804 919.926 446.8 918.581 449.12 915.479L451.584 912.186C452.407 911.085 453.376 910.099 454.463 909.257L459.921 905.029C461.347 903.924 462.666 902.689 463.863 901.34L464.586 900.524C465.144 899.895 465.752 899.312 466.404 898.781L470.37 895.55C471.492 894.636 472.144 893.265 472.144 891.818V891.818C472.144 889.886 473.299 888.142 475.077 887.387L479.218 885.631C481.703 884.577 484.478 884.422 487.065 885.193L498.601 888.632L511.814 892.832C514.375 893.646 516.497 895.462 517.696 897.867V897.867C519.377 901.238 522.821 903.368 526.588 903.368H530.555C533.553 903.368 536.493 904.193 539.054 905.752L541.85 907.454C545.178 909.48 548.048 912.178 550.275 915.376L555.095 922.299C559.947 929.266 566.059 935.263 573.117 939.981L583.855 947.158L601.57 962.288C604.773 965.023 608.847 966.526 613.059 966.526V966.526C617.251 966.526 621.307 968.015 624.503 970.727L630.486 975.802C634.001 978.784 638.461 980.421 643.07 980.421V980.421H660.78C664.837 980.421 668.799 979.193 672.144 976.898V976.898C674.026 975.607 676.114 974.646 678.319 974.057L693.794 969.919C702.219 967.667 710.902 966.526 719.622 966.526H720.764V966.526C727.406 966.526 734.005 967.967 740.049 970.721V970.721C746.137 973.496 752.784 974.947 759.475 974.947H777.88H785.859H802.2C808.169 974.947 813.922 972.719 818.333 968.698V968.698C819.915 967.257 821.682 966.034 823.589 965.062L841.166 956.101C844.037 954.638 846.684 952.772 849.028 950.561L851.274 948.44C852.176 947.59 852.948 946.613 853.568 945.54V945.54C855.849 941.591 860.062 939.158 864.623 939.158H867.629C871.525 939.158 875.316 937.892 878.43 935.55L882.031 932.842L893.79 926.105L895.628 924.898C902.29 920.522 910.325 918.744 918.211 919.901V919.901C921.509 920.385 924.863 920.359 928.153 919.824L929.492 919.607C935.571 918.618 941.353 916.282 946.413 912.77L948.278 911.476C949.189 910.844 950.05 910.144 950.855 909.382L951.621 908.656C955.207 905.261 959.957 903.368 964.895 903.368V903.368C967.579 903.368 970.232 902.809 972.687 901.726L986.883 895.464C988.914 894.568 991.109 894.105 993.329 894.105V894.105C999.264 894.105 1004.71 897.397 1007.47 902.652L1012.62 912.464C1014.58 916.193 1017.2 919.53 1020.37 922.307L1030.59 931.272C1031.73 932.27 1032.38 933.71 1032.38 935.222V935.222C1032.38 937.555 1033.92 939.609 1036.16 940.265L1057.27 946.452C1058.87 946.922 1060.44 947.507 1061.96 948.203L1070.66 952.193C1073.11 953.314 1075.77 953.895 1078.46 953.895H1086.86C1089.22 953.895 1091.36 955.299 1092.3 957.469V957.469C1094.07 961.573 1099.64 962.239 1102.42 958.744V958.744C1104.53 956.107 1108.42 955.674 1111.01 957.837L1112.71 959.258C1113.47 959.888 1114.33 960.377 1115.26 960.701L1123.19 963.476C1128.96 965.495 1135.04 966.526 1141.15 966.526V966.526H1153.36C1159.01 966.526 1164.47 968.639 1168.65 972.45V972.45C1170.46 974.104 1172 976.041 1173.19 978.186L1174.86 981.18C1179.13 988.856 1185.94 994.807 1194.12 998.015L1195.07 998.388C1198.85 999.87 1202.87 1000.63 1206.93 1000.63V1000.63C1213.59 1000.63 1220.09 1002.68 1225.55 1006.5L1227.98 1008.19C1232.75 1011.54 1236.78 1015.84 1239.8 1020.83L1246.12 1031.28C1249.19 1036.36 1253.09 1040.88 1257.66 1044.66V1044.66C1265.76 1051.37 1271.71 1060.45 1274.7 1070.53V1070.53L1279.82 1083.18C1280.6 1085.11 1281 1087.18 1281 1089.26V1089.26V1089.26C1281 1091.3 1280.27 1093.27 1278.93 1094.81L1277.29 1096.72C1276.13 1098.05 1274.75 1099.18 1273.21 1100.04L1270.16 1101.76C1266.8 1103.64 1263.02 1104.63 1259.18 1104.63V1104.63C1256.12 1104.63 1253.09 1105.26 1250.29 1106.47L1239.42 1111.16C1229.45 1115.46 1218.7 1117.68 1207.84 1117.68H1183.76C1177.49 1117.68 1171.23 1118.27 1165.06 1119.45L1151.67 1122C1144.68 1123.33 1137.56 1123.91 1130.44 1123.73L1024.82 1121.05L992.98 1118.34C987.896 1117.9 982.787 1117.86 977.697 1118.2L935.787 1121.05H885.825C875.803 1121.05 865.849 1119.42 856.352 1116.22L834.969 1109.01C825.832 1105.93 818.262 1099.4 813.88 1090.81V1090.81C812.286 1087.69 810.255 1084.81 807.849 1082.26L798.557 1072.41C797.373 1071.16 796.092 1070 794.725 1068.94L793.199 1067.77C788.44 1064.1 782.6 1062.11 776.59 1062.11V1062.11C772.464 1062.11 768.392 1061.17 764.683 1059.36L761.285 1057.71C757.558 1055.89 753.467 1054.95 749.322 1054.95V1054.95H745.232C735.689 1054.95 726.194 1056.31 717.038 1059L706.485 1062.11L698.587 1064.88C687.97 1068.62 676.798 1070.53 665.544 1070.53H657.991C651.178 1070.53 644.419 1071.74 638.031 1074.11V1074.11C631.642 1076.47 624.883 1077.68 618.07 1077.68H615.978C609.71 1077.68 603.472 1078.54 597.434 1080.22L584.734 1083.76C579.134 1085.31 573.348 1086.11 567.536 1086.11V1086.11C558.363 1086.11 549.298 1084.14 540.952 1080.33L535.139 1077.68L521.396 1072.59C517.776 1071.25 514.686 1068.78 512.586 1065.54V1065.54C511.121 1063.28 509.166 1061.38 506.867 1059.98L505.084 1058.89C500.844 1056.31 495.976 1054.95 491.012 1054.95H486.605C480.932 1054.95 475.584 1057.59 472.144 1062.11V1062.11L468.049 1067.24C466.331 1069.39 464.066 1071.04 461.492 1072.03L460.193 1072.52C457.866 1073.41 455.311 1073.51 452.923 1072.8L449.627 1071.82C447.012 1071.04 444.19 1072 442.58 1074.2V1074.2C441.364 1075.86 439.429 1076.84 437.371 1076.84H412.82C394.518 1076.84 377.422 1067.71 367.247 1052.5L266.009 901.13C264.494 898.865 265.549 895.78 268.133 894.916V894.916Z" fill="#FF5C0B"/>
<path d="M-161.393 1000.51C-160.706 1000.57 -160.013 1000.54 -159.333 1000.42L-141.91 997.358C-138.284 996.72 -134.609 996.399 -130.927 996.399V996.399C-125.969 996.399 -121.028 995.818 -116.205 994.666L-97.0515 990.092L-69.6191 979.392C-67.7862 978.677 -66.009 977.827 -64.3021 976.849V976.849C-58.2902 973.403 -51.4814 971.59 -44.5521 971.59H-36.4536C-30.6084 971.59 -24.9153 969.727 -20.2008 966.272V966.272C-17.7876 964.503 -15.1018 963.14 -12.2494 962.236L10.1101 955.155C13.5535 954.064 17.144 953.509 20.756 953.509V953.509H28.0163C36.5445 953.509 45.0252 952.24 53.1802 949.745L65.6151 945.94L80.1362 940.015C86.918 937.249 93.3185 933.627 99.1823 929.238L118.44 914.823L125.055 910.511C126.21 909.758 127.559 909.357 128.938 909.357H134.163C135.204 909.357 136.048 910.201 136.048 911.242V911.242C136.048 912.76 137.749 913.656 139.001 912.797L143.154 909.947C143.72 909.559 144.19 909.047 144.53 908.451L149.928 898.977C151.568 896.098 153.584 893.451 155.923 891.105L156.843 890.182C158.069 888.952 159.421 887.854 160.876 886.905L164.384 884.618C166.138 883.475 168.187 882.866 170.281 882.866V882.866C172.812 882.866 175.263 881.976 177.206 880.353L178.469 879.297C180.586 877.528 183.257 876.558 186.016 876.558V876.558C187.893 876.558 189.743 876.109 191.412 875.249L196.21 872.774C201.031 870.287 206.377 868.989 211.802 868.989H211.931H221.928C224.133 868.989 226.265 868.195 227.932 866.751V866.751C231.643 863.535 237.229 863.815 240.602 867.385L242.117 868.989L250.082 876.558L260.767 885.651C262.864 887.436 264.822 889.379 266.623 891.463V891.463C268.45 893.577 270.11 895.831 271.588 898.203L278.248 908.89C280.708 912.839 283.486 916.582 286.552 920.082L287.447 921.103C291.869 926.15 295.686 931.698 298.818 937.632L303.406 946.324C307.246 953.599 312.11 960.286 317.849 966.179L319.367 967.738C324.306 972.81 329.853 977.252 335.881 980.965L350.701 990.092L374.826 1009.95C380.52 1014.63 385.587 1020.03 389.904 1026.01L401.01 1041.39L423.907 1065.59C424.293 1066 424.726 1066.36 425.196 1066.66V1066.66C430.568 1070.16 428.95 1078.42 422.656 1079.62L421.755 1079.8C420.791 1079.98 419.874 1080.35 419.054 1080.89L413.577 1084.49C409.974 1086.86 406.016 1088.64 401.852 1089.76L390.948 1092.69L350.38 1097.86C344.461 1098.62 338.48 1098.76 332.533 1098.27L263.918 1092.69L203.546 1080.08L158.687 1076.29L136.28 1073.08C133.613 1072.7 130.923 1072.51 128.229 1072.51H117.715C114.62 1072.51 111.579 1071.69 108.899 1070.14V1070.14C104.566 1067.63 99.3698 1067.09 94.6113 1068.65L89.4867 1070.32C85.0925 1071.76 80.4233 1072.15 75.8515 1071.46L46.2357 1067.01C42.7797 1066.49 39.2518 1067.22 36.2906 1069.08V1069.08C32.8045 1071.26 28.5592 1071.88 24.5958 1070.78L8.1787 1066.2L-47.5808 1050.64L-75.5511 1043.63C-81.2025 1042.21 -87.1914 1043.39 -91.8849 1046.84V1046.84C-95.2413 1049.31 -99.2987 1050.64 -103.465 1050.64H-106.346C-109.9 1050.64 -113.423 1049.97 -116.73 1048.67L-123.464 1046.02V1046.02C-131.979 1042.99 -139.551 1037.78 -145.423 1030.9L-149.038 1026.67L-160.357 1014.06L-164.759 1007.96L-169.315 1002.66C-169.757 1002.15 -170 1001.49 -170 1000.81V1000.81V1000.81C-170 1000.25 -169.516 999.805 -168.953 999.855L-161.393 1000.51Z" fill="#FFC823"/>
</g>
<defs>
<clipPath id="clip0_682_4264">
<rect width="724" height="1117" fill="white"/>
</clipPath>
</defs>
</svg>
