<svg width="1248" height="1117" viewBox="0 0 1248 1117" fill="none" xmlns="http://www.w3.org/2000/svg">
<g clip-path="url(#clip0_682_4236)">
<rect width="1248" height="1117" fill="white"/>
<path fill-rule="evenodd" clip-rule="evenodd" d="M1092.61 40C1138.58 40 1177.97 65.9001 1194.43 102.685C1210.59 90.7075 1229.35 83.8543 1249.35 83.8543C1301.3 83.8543 1344.84 130.079 1356.39 192.246C1380.93 195.627 1400 221.256 1400 252.37C1400 285.785 1378 312.873 1350.87 312.873C1346.08 312.873 1341.46 312.032 1337.09 310.463C1317 344.493 1285.17 366.473 1249.35 366.473C1237.9 366.473 1226.85 364.225 1216.47 360.056C1197.28 389.672 1162.09 409.514 1121.85 409.514C1086.42 409.514 1054.91 394.134 1034.78 370.243C1022.54 375.604 1008.49 378.654 993.533 378.654C946.214 378.654 907.855 348.112 907.855 310.436C907.855 301.119 910.2 292.238 914.448 284.148C884.144 264.968 864 230.991 864 192.273C864 132.395 912.177 83.8543 971.606 83.8543C981.183 83.8543 990.469 85.115 999.307 87.4806C1018.76 58.9623 1053.28 40 1092.61 40Z" fill="#0002EA"/>
<path fill-rule="evenodd" clip-rule="evenodd" d="M101.4 40C71.2805 40 45.4744 56.9698 34.6893 81.0714C24.0992 73.2238 11.8103 68.7337 -1.29518 68.7337C-35.3316 68.7337 -63.8596 99.0196 -71.4281 139.75C-87.5031 141.966 -100 158.758 -100 179.144C-100 201.037 -85.5871 218.786 -67.8079 218.786C-64.6748 218.786 -61.6463 218.234 -58.7828 217.207C-45.6172 239.503 -24.7659 253.905 -1.29518 253.905C6.20935 253.905 13.4461 252.433 20.2494 249.701C32.8232 269.105 55.8816 282.106 82.2448 282.106C105.456 282.106 126.105 272.028 139.292 256.375C147.309 259.888 156.52 261.886 166.317 261.886C197.32 261.886 222.453 241.875 222.453 217.189C222.453 211.085 220.916 205.266 218.134 199.966C237.989 187.399 251.187 165.137 251.187 139.769C251.187 100.537 219.621 68.7337 180.683 68.7337C174.408 68.7337 168.325 69.5596 162.534 71.1095C149.786 52.4242 127.172 40 101.4 40Z" fill="#0002EA"/>
<path fill-rule="evenodd" clip-rule="evenodd" d="M406.89 306.9C402.298 310.652 396.632 312.867 390.502 312.867C383.387 312.867 376.896 309.881 371.985 304.972C367.823 307.097 362.953 308.318 357.749 308.318C342.424 308.318 330 297.727 330 284.663C330 271.599 342.424 261.008 357.749 261.008C361.611 261.008 365.289 261.68 368.63 262.895C373.708 255.655 381.618 251 390.502 251C402.661 251 412.994 259.718 416.744 271.852C420.052 271.988 423.463 272.834 426.717 274.457C437.58 279.875 442.581 291.897 437.886 301.31C433.192 310.722 420.58 313.961 409.717 308.543C408.725 308.048 407.781 307.498 406.89 306.9Z" fill="#0002EA"/>
<path fill-rule="evenodd" clip-rule="evenodd" d="M619.435 -36.8952C630.289 -45.7633 643.68 -51 658.168 -51C674.988 -51 690.329 -43.9426 701.938 -32.3392C711.776 -37.3609 723.285 -40.2474 735.586 -40.2474C771.81 -40.2474 801.176 -15.2144 801.176 15.6654C801.176 46.5451 771.81 71.5781 735.586 71.5781C726.458 71.5781 717.765 69.9886 709.868 67.1165C697.863 84.2316 679.168 95.2334 658.168 95.2334C629.428 95.2334 605.006 74.6277 596.141 45.9462C588.322 45.6241 580.26 43.6239 572.569 39.7881C546.892 26.982 535.072 -1.43504 546.168 -23.6831C557.264 -45.9311 587.075 -53.5852 612.751 -40.7791C615.097 -39.6092 617.327 -38.3091 619.435 -36.8952Z" fill="#0002EA"/>
<path fill-rule="evenodd" clip-rule="evenodd" d="M1463 990H0V1185H1463H1728V1095H1463V990Z" fill="#FFB47F"/>
<path d="M522.119 863.96C523.885 863.372 525.831 863.831 527.147 865.147L540.04 878.04C542.989 880.989 546.449 883.377 550.252 885.088L553.712 886.645C560.823 889.845 568.532 891.5 576.33 891.5H588.5H603.5H616.901C619.552 891.5 622.121 890.583 624.173 888.904V888.904C628.647 885.243 635.145 885.48 639.342 889.456L640.66 890.704C641.219 891.234 641.828 891.719 642.468 892.146V892.146C644.757 893.671 647.468 894.5 650.219 894.5H653.28C655.745 894.5 658.196 894.879 660.546 895.624L669.782 898.553C674.897 900.175 680.231 901 685.597 901V901C691.816 901 697.985 899.891 703.815 897.726L712.5 894.5L719.378 892.437C721.417 891.825 723.588 891.811 725.634 892.395V892.395C730.07 893.663 734.828 892.062 737.596 888.371L740.519 884.474C741.502 883.164 742.657 881.992 743.953 880.991L750.45 875.971C752.146 874.66 753.717 873.194 755.141 871.591L756.003 870.622C756.667 869.875 757.389 869.184 758.165 868.554L762.891 864.713C764.225 863.629 765 862.002 765 860.283V860.283C765 857.99 766.372 855.919 768.484 855.026L773.433 852.932C776.385 851.683 779.68 851.5 782.753 852.413L796.5 856.5L812.238 861.49C815.282 862.455 817.806 864.612 819.234 867.469V867.469C821.236 871.472 825.327 874 829.802 874H834.546C838.114 874 841.612 874.979 844.662 876.83L847.983 878.847C851.951 881.256 855.372 884.466 858.029 888.272L863.76 896.48C869.535 904.753 876.809 911.873 885.205 917.47L898 926L919.085 943.962C922.903 947.214 927.755 949 932.77 949V949C937.761 949 942.591 950.769 946.401 953.993L953.511 960.009C957.701 963.555 963.012 965.5 968.5 965.5V965.5H989.593C994.418 965.5 999.131 964.042 1003.11 961.317V961.317C1005.35 959.784 1007.84 958.642 1010.46 957.943L1031.34 952.377C1039.74 950.135 1048.41 949 1057.1 949H1061V949C1068.91 949 1076.76 950.71 1083.96 953.983V953.983C1091.21 957.278 1099.12 959 1107.08 959H1129H1138.5H1157.97C1165.07 959 1171.91 956.355 1177.16 951.581V951.581C1179.05 949.868 1181.15 948.415 1183.42 947.261L1204.35 936.616C1207.77 934.881 1210.92 932.668 1213.7 930.044L1216.38 927.524C1217.45 926.513 1218.38 925.352 1219.11 924.075V924.075C1221.83 919.387 1226.84 916.5 1232.25 916.5H1235.86C1240.49 916.5 1245.01 914.996 1248.72 912.214L1253 909L1267 901L1269.18 899.573C1277.12 894.372 1286.69 892.259 1296.08 893.633V893.633C1300 894.208 1303.99 894.177 1307.91 893.542L1309.5 893.283C1316.74 892.109 1323.63 889.333 1329.66 885.158L1331.87 883.628C1332.96 882.877 1333.98 882.045 1334.94 881.139L1335.84 880.287C1340.12 876.25 1345.78 874 1351.66 874V874C1354.85 874 1358.01 873.336 1360.93 872.05L1377.84 864.613C1380.25 863.549 1382.86 863 1385.5 863V863C1392.57 863 1399.06 866.917 1402.35 873.173L1408.47 884.792C1410.8 889.226 1413.93 893.192 1417.7 896.492L1429.87 907.138C1431.22 908.321 1432 910.031 1432 911.828V911.828C1432 914.597 1433.83 917.034 1436.48 917.811L1461.64 925.164C1463.54 925.721 1465.41 926.414 1467.21 927.239L1477.58 931.981C1480.49 933.311 1483.66 934 1486.86 934H1496.87C1499.68 934 1502.22 935.669 1503.34 938.249V938.249C1505.45 943.126 1512.07 943.913 1515.39 939.762V939.762C1517.9 936.629 1522.53 936.11 1525.61 938.679L1527.64 940.367C1528.54 941.116 1529.57 941.697 1530.67 942.083L1540.12 945.379C1546.99 947.776 1554.22 949 1561.5 949V949H1576.05C1582.77 949 1589.26 951.506 1594.23 956.029V956.029C1596.4 957.997 1598.23 960.302 1599.65 962.856L1601.61 966.368C1606.71 975.504 1614.83 982.585 1624.57 986.397L1625.69 986.835C1630.19 988.596 1634.98 989.5 1639.81 989.5V989.5C1647.75 989.5 1655.49 991.934 1661.99 996.473L1664.86 998.471C1670.56 1002.45 1675.36 1007.57 1678.96 1013.51L1686.48 1025.89C1690.13 1031.92 1694.78 1037.29 1700.21 1041.78V1041.78C1709.85 1049.75 1716.94 1060.51 1720.5 1072.5V1072.5L1726.59 1087.52C1727.52 1089.82 1728 1092.27 1728 1094.75V1094.75V1094.75C1728 1097.17 1727.13 1099.51 1725.54 1101.33L1723.57 1103.61C1722.2 1105.19 1720.56 1106.52 1718.74 1107.55L1715.09 1109.59C1711.1 1111.83 1706.6 1113 1702.02 1113V1113C1698.38 1113 1694.78 1113.74 1691.43 1115.18L1678.5 1120.75C1666.62 1125.86 1653.83 1128.5 1640.9 1128.5H1610.41C1604.15 1128.5 1597.9 1129.09 1591.76 1130.26L1572 1134.01C1565.02 1135.33 1557.92 1135.91 1550.82 1135.73L1423 1132.5L1383.62 1129.15C1378.55 1128.72 1373.45 1128.67 1368.37 1129.02L1317 1132.5H1255.86C1245.02 1132.5 1234.26 1130.74 1224 1127.29L1196.93 1118.19C1186.08 1114.54 1177.08 1106.79 1171.86 1096.6V1096.6C1169.96 1092.88 1167.55 1089.46 1164.68 1086.43L1153.62 1074.74C1152.21 1073.25 1150.68 1071.87 1149.05 1070.62L1147.25 1069.23C1141.58 1064.87 1134.62 1062.5 1127.46 1062.5V1062.5C1122.55 1062.5 1117.7 1061.39 1113.29 1059.24L1109.25 1057.28C1104.81 1055.12 1099.94 1054 1095 1054V1054H1087.35C1077.83 1054 1068.36 1055.36 1059.23 1058.04L1044 1062.5L1031.57 1066.86C1020.93 1070.59 1009.74 1072.5 998.465 1072.5H986.26C978.151 1072.5 970.106 1073.94 962.5 1076.75V1076.75C954.894 1079.56 946.849 1081 938.74 1081H936.244C928.783 1081 921.355 1082.01 914.166 1084.01L899.048 1088.21C892.38 1090.06 885.492 1091 878.572 1091V1091C867.651 1091 856.856 1088.66 846.914 1084.14L840 1081L823.627 1074.95C819.324 1073.36 815.65 1070.42 813.15 1066.58V1066.58C811.406 1063.89 809.079 1061.64 806.344 1059.98L804.211 1058.68C799.167 1055.62 793.38 1054 787.479 1054H782.2C775.456 1054 769.097 1057.14 765 1062.5V1062.5L760.133 1068.58C758.082 1071.15 755.382 1073.12 752.314 1074.29L750.771 1074.87C748.001 1075.93 744.96 1076.04 742.118 1075.2L738.183 1074.04C735.074 1073.11 731.721 1074.24 729.803 1076.86V1076.86C728.355 1078.83 726.054 1080 723.606 1080H694.373C672.578 1080 652.216 1069.14 640.078 1051.04L519.592 871.357C517.785 868.662 519.041 864.986 522.119 863.96V863.96Z" fill="#FF733B"/>
<path d="M10.2674 989.893C11.0856 989.964 11.9097 989.928 12.7187 989.786L33.4998 986.14C37.8251 985.382 42.2081 985 46.5995 985V985C52.5129 985 58.4059 984.308 64.1584 982.938L87 977.5L119.716 964.777C121.902 963.927 124.023 962.916 126.059 961.752V961.752C133.229 957.655 141.343 955.5 149.601 955.5H159.284C166.247 955.5 173.03 953.286 178.652 949.177V949.177C181.531 947.073 184.734 945.452 188.135 944.378L214.802 935.957C218.91 934.66 223.192 934 227.5 934V934H238.673C247.177 934 255.635 932.739 263.769 930.257L281 925L300.297 917.15C307.071 914.395 313.466 910.786 319.328 906.412L344 888L351.891 882.871C353.267 881.976 354.874 881.5 356.515 881.5H362.755C363.995 881.5 365 882.505 365 883.745V883.745C365 885.55 367.022 886.616 368.512 885.597L373.473 882.202C374.149 881.74 374.711 881.131 375.117 880.42L381.549 869.164C383.508 865.737 385.914 862.586 388.706 859.794L389.796 858.704C391.261 857.239 392.876 855.931 394.614 854.801L398.792 852.085C400.886 850.724 403.329 850 405.827 850V850C408.846 850 411.77 848.941 414.09 847.008L415.587 845.761C418.115 843.654 421.303 842.5 424.594 842.5V842.5C426.832 842.5 429.038 841.966 431.029 840.942L436.75 838C442.5 835.043 448.873 833.5 455.339 833.5H455.5H467.425C470.054 833.5 472.595 832.555 474.584 830.837V830.837C479.014 827.011 485.668 827.344 489.694 831.593L491.5 833.5L501 842.5L513.746 853.315C516.245 855.435 518.578 857.744 520.725 860.221V860.221C522.905 862.736 524.886 865.418 526.651 868.241L535.291 882.066C537.76 886.016 540.545 889.758 543.619 893.256L546.825 896.905C551.26 901.951 555.088 907.499 558.231 913.436L565.691 927.528C569.544 934.805 574.421 941.491 580.175 947.381L585.056 952.379C590 957.44 595.549 961.872 601.578 965.574L621 977.5L651.412 1002.45C657.114 1007.13 662.19 1012.52 666.516 1018.5L681 1038.5L708.309 1067.27C708.768 1067.76 709.283 1068.18 709.842 1068.55V1068.55C716.239 1072.7 714.317 1082.52 706.828 1083.96L705.732 1084.17C704.589 1084.39 703.499 1084.83 702.525 1085.47L695.988 1089.75C691.69 1092.57 686.971 1094.68 682.008 1096.01L669 1099.5L618.876 1105.87C612.975 1106.62 607.011 1106.76 601.081 1106.28L517.5 1099.5L445.5 1084.5L392 1080L365.275 1076.18C362.096 1075.73 358.888 1075.5 355.676 1075.5H343.133C339.443 1075.5 335.817 1074.53 332.621 1072.69V1072.69C327.452 1069.7 321.26 1069.06 315.587 1070.91L309.47 1072.9C304.229 1074.61 298.662 1075.07 293.21 1074.26L257.883 1068.96C253.764 1068.34 249.559 1069.21 246.026 1071.42V1071.42C241.868 1074.02 236.809 1074.75 232.084 1073.44L212.5 1068L146 1049.5L112.631 1041.16C105.896 1039.47 98.7613 1040.88 93.1631 1044.98V1044.98C89.1589 1047.92 84.3228 1049.5 79.3573 1049.5H75.9135C71.6755 1049.5 67.4751 1048.7 63.5306 1047.15L55.5 1044V1044C45.3441 1040.4 36.3096 1034.19 29.2965 1026.01L25 1021L11.5 1006L6.25 998.75L0.816176 992.447C0.289643 991.836 0 991.056 0 990.25V990.25V990.25C0 989.578 0.57572 989.05 1.2453 989.108L10.2674 989.893Z" fill="#FFC823"/>
</g>
<defs>
<clipPath id="clip0_682_4236">
<rect width="1248" height="1117" fill="white"/>
</clipPath>
</defs>
</svg>
