<svg width="1728" height="1117" viewBox="0 0 1728 1117" fill="none" xmlns="http://www.w3.org/2000/svg">
<g clip-path="url(#clip0_681_4204)">
<rect width="1728" height="1117" fill="white"/>
<path fill-rule="evenodd" clip-rule="evenodd" d="M1542.61 130.484C1588.58 130.484 1627.97 156.384 1644.43 193.169C1660.59 181.192 1679.35 174.339 1699.35 174.339C1751.3 174.339 1794.84 220.564 1806.39 282.73C1830.93 286.112 1850 311.74 1850 342.855C1850 376.27 1828 403.358 1800.87 403.358C1796.08 403.358 1791.46 402.517 1787.09 400.948C1767 434.977 1735.17 456.957 1699.35 456.957C1687.9 456.957 1676.85 454.71 1666.47 450.54C1647.28 480.156 1612.09 499.999 1571.85 499.999C1536.42 499.999 1504.91 484.618 1484.78 460.728C1472.54 466.089 1458.49 469.138 1443.53 469.138C1396.21 469.138 1357.85 438.596 1357.85 400.92C1357.85 391.603 1360.2 382.722 1364.45 374.632C1334.14 355.453 1314 321.475 1314 282.757C1314 222.879 1362.18 174.339 1421.61 174.339C1431.18 174.339 1440.47 175.599 1449.31 177.965C1468.76 149.447 1503.28 130.484 1542.61 130.484Z" fill="#0002EA"/>
<path fill-rule="evenodd" clip-rule="evenodd" d="M106.4 36C76.2804 36 50.4742 52.9698 39.6891 77.0714C29.099 69.2238 16.8102 64.7337 3.7047 64.7337C-30.3318 64.7337 -58.8597 95.0196 -66.4282 135.75C-82.5032 137.966 -95.0001 154.758 -95.0001 175.144C-95.0001 197.037 -80.5872 214.786 -62.808 214.786C-59.6749 214.786 -56.6464 214.234 -53.7829 213.207C-40.6174 235.503 -19.766 249.905 3.7047 249.905C11.2092 249.905 18.446 248.433 25.2493 245.701C37.8231 265.105 60.8815 278.106 87.2447 278.106C110.456 278.106 131.105 268.028 144.292 252.375C152.309 255.888 161.52 257.886 171.317 257.886C202.32 257.886 227.453 237.875 227.453 213.189C227.453 207.085 225.916 201.266 223.134 195.966C242.989 183.399 256.187 161.137 256.187 135.769C256.187 96.5373 224.621 64.7337 185.683 64.7337C179.408 64.7337 173.325 65.5596 167.534 67.1095C154.786 48.4242 132.172 36 106.4 36Z" fill="#0002EA"/>
<path fill-rule="evenodd" clip-rule="evenodd" d="M405.073 302.905C400.481 306.656 394.816 308.872 388.686 308.872C381.57 308.872 375.08 305.886 370.168 300.977C366.006 303.102 361.137 304.323 355.933 304.323C340.607 304.323 328.184 293.732 328.184 280.668C328.184 267.604 340.607 257.013 355.933 257.013C359.795 257.013 363.472 257.685 366.813 258.9C371.892 251.659 379.801 247.005 388.686 247.005C400.845 247.005 411.177 255.722 414.928 267.857C418.236 267.993 421.647 268.839 424.901 270.462C435.764 275.88 440.764 287.902 436.07 297.315C431.376 306.727 418.764 309.966 407.901 304.548C406.908 304.053 405.965 303.503 405.073 302.905Z" fill="#0002EA"/>
<path fill-rule="evenodd" clip-rule="evenodd" d="M1110.57 -27.8952C1121.42 -36.7633 1134.81 -42 1149.3 -42C1166.12 -42 1181.46 -34.9426 1193.07 -23.3392C1202.91 -28.3609 1214.42 -31.2474 1226.72 -31.2474C1262.94 -31.2474 1292.31 -6.21439 1292.31 24.6654C1292.31 55.5451 1262.94 80.5781 1226.72 80.5781C1217.59 80.5781 1208.9 78.9886 1201 76.1165C1188.99 93.2316 1170.3 104.233 1149.3 104.233C1120.56 104.233 1096.14 83.6277 1087.27 54.9462C1079.45 54.6241 1071.39 52.6239 1063.7 48.7881C1038.02 35.982 1026.2 7.56496 1037.3 -14.6831C1048.39 -36.9311 1078.21 -44.5852 1103.88 -31.7791C1106.23 -30.6092 1108.46 -29.3091 1110.57 -27.8952Z" fill="#0002EA"/>
<path fill-rule="evenodd" clip-rule="evenodd" d="M1463 939H0V1134H1463H1728V1044H1463V939Z" fill="#EB6C12"/>
<path d="M522.119 812.96C523.885 812.372 525.831 812.831 527.147 814.147L540.04 827.04C542.989 829.989 546.449 832.377 550.252 834.088L553.712 835.645C560.823 838.845 568.532 840.5 576.33 840.5H588.5H603.5H616.901C619.552 840.5 622.121 839.583 624.173 837.904V837.904C628.647 834.243 635.145 834.48 639.342 838.456L640.66 839.704C641.219 840.234 641.828 840.719 642.468 841.146V841.146C644.757 842.671 647.468 843.5 650.219 843.5H653.28C655.745 843.5 658.196 843.879 660.546 844.624L669.782 847.553C674.897 849.175 680.231 850 685.597 850V850C691.816 850 697.985 848.891 703.815 846.726L712.5 843.5L719.378 841.437C721.417 840.825 723.588 840.811 725.634 841.395V841.395C730.07 842.663 734.828 841.062 737.596 837.371L740.519 833.474C741.502 832.164 742.657 830.992 743.953 829.991L750.45 824.971C752.146 823.66 753.717 822.194 755.141 820.591L756.003 819.622C756.667 818.875 757.389 818.184 758.165 817.554L762.891 813.713C764.225 812.629 765 811.002 765 809.283V809.283C765 806.99 766.372 804.919 768.484 804.026L773.433 801.932C776.385 800.683 779.68 800.5 782.753 801.413L796.5 805.5L812.238 810.49C815.282 811.455 817.806 813.612 819.234 816.469V816.469C821.236 820.472 825.327 823 829.802 823H834.546C838.114 823 841.612 823.979 844.662 825.83L847.983 827.847C851.951 830.256 855.372 833.466 858.029 837.272L863.76 845.48C869.535 853.753 876.809 860.873 885.205 866.47L898 875L919.085 892.962C922.903 896.214 927.755 898 932.77 898V898C937.761 898 942.591 899.769 946.401 902.993L953.511 909.009C957.701 912.555 963.012 914.5 968.5 914.5V914.5H989.593C994.418 914.5 999.131 913.042 1003.11 910.317V910.317C1005.35 908.784 1007.84 907.642 1010.46 906.943L1031.34 901.377C1039.74 899.135 1048.41 898 1057.1 898H1061V898C1068.91 898 1076.76 899.71 1083.96 902.983V902.983C1091.21 906.278 1099.12 908 1107.08 908H1129H1138.5H1157.97C1165.07 908 1171.91 905.355 1177.16 900.581V900.581C1179.05 898.868 1181.15 897.415 1183.42 896.261L1204.35 885.616C1207.77 883.881 1210.92 881.668 1213.7 879.044L1216.38 876.524C1217.45 875.513 1218.38 874.352 1219.11 873.075V873.075C1221.83 868.387 1226.84 865.5 1232.25 865.5H1235.86C1240.49 865.5 1245.01 863.996 1248.72 861.214L1253 858L1267 850L1269.18 848.573C1277.12 843.372 1286.69 841.259 1296.08 842.633V842.633C1300 843.208 1303.99 843.177 1307.91 842.542L1309.5 842.283C1316.74 841.109 1323.63 838.333 1329.66 834.158L1331.87 832.628C1332.96 831.877 1333.98 831.045 1334.94 830.139L1335.84 829.287C1340.12 825.25 1345.78 823 1351.66 823V823C1354.85 823 1358.01 822.336 1360.93 821.05L1377.84 813.613C1380.25 812.549 1382.86 812 1385.5 812V812C1392.57 812 1399.06 815.917 1402.35 822.173L1408.47 833.792C1410.8 838.226 1413.93 842.192 1417.7 845.492L1429.87 856.138C1431.22 857.321 1432 859.031 1432 860.828V860.828C1432 863.597 1433.83 866.034 1436.48 866.811L1461.64 874.164C1463.54 874.721 1465.41 875.414 1467.21 876.239L1477.58 880.981C1480.49 882.311 1483.66 883 1486.86 883H1496.87C1499.68 883 1502.22 884.669 1503.34 887.249V887.249C1505.45 892.126 1512.07 892.913 1515.39 888.762V888.762C1517.9 885.629 1522.53 885.11 1525.61 887.679L1527.64 889.367C1528.54 890.116 1529.57 890.697 1530.67 891.083L1540.12 894.379C1546.99 896.776 1554.22 898 1561.5 898V898H1576.05C1582.77 898 1589.26 900.506 1594.23 905.029V905.029C1596.4 906.997 1598.23 909.302 1599.65 911.856L1601.61 915.368C1606.71 924.504 1614.83 931.585 1624.57 935.397L1625.69 935.835C1630.19 937.596 1634.98 938.5 1639.81 938.5V938.5C1647.75 938.5 1655.49 940.934 1661.99 945.473L1664.86 947.471C1670.56 951.446 1675.36 956.569 1678.96 962.509L1686.48 974.893C1690.13 980.922 1694.78 986.293 1700.21 990.784V990.784C1709.85 998.747 1716.94 1009.51 1720.5 1021.5V1021.5L1726.59 1036.52C1727.52 1038.82 1728 1041.27 1728 1043.75V1043.75V1043.75C1728 1046.17 1727.13 1048.51 1725.54 1050.33L1723.57 1052.61C1722.2 1054.19 1720.56 1055.52 1718.74 1056.55L1715.09 1058.59C1711.1 1060.83 1706.6 1062 1702.02 1062V1062C1698.38 1062 1694.78 1062.74 1691.43 1064.18L1678.5 1069.75C1666.62 1074.86 1653.83 1077.5 1640.9 1077.5H1610.41C1604.15 1077.5 1597.9 1078.09 1591.76 1079.26L1572 1083.01C1565.02 1084.33 1557.92 1084.91 1550.82 1084.73L1423 1081.5L1383.62 1078.15C1378.55 1077.72 1373.45 1077.67 1368.37 1078.02L1317 1081.5H1255.86C1245.02 1081.5 1234.26 1079.74 1224 1076.29L1196.93 1067.19C1186.08 1063.54 1177.08 1055.79 1171.86 1045.6V1045.6C1169.96 1041.88 1167.55 1038.46 1164.68 1035.43L1153.62 1023.74C1152.21 1022.25 1150.68 1020.87 1149.05 1019.62L1147.25 1018.23C1141.58 1013.87 1134.62 1011.5 1127.46 1011.5V1011.5C1122.55 1011.5 1117.7 1010.39 1113.29 1008.24L1109.25 1006.28C1104.81 1004.12 1099.94 1003 1095 1003V1003H1087.35C1077.83 1003 1068.36 1004.36 1059.23 1007.04L1044 1011.5L1031.57 1015.86C1020.93 1019.59 1009.74 1021.5 998.465 1021.5H986.26C978.151 1021.5 970.106 1022.94 962.5 1025.75V1025.75C954.894 1028.56 946.849 1030 938.74 1030H936.244C928.783 1030 921.355 1031.01 914.166 1033.01L899.048 1037.21C892.38 1039.06 885.492 1040 878.572 1040V1040C867.651 1040 856.856 1037.66 846.914 1033.14L840 1030L823.627 1023.95C819.324 1022.36 815.65 1019.42 813.15 1015.58V1015.58C811.406 1012.89 809.079 1010.64 806.344 1008.98L804.211 1007.68C799.167 1004.62 793.38 1003 787.479 1003H782.2C775.456 1003 769.097 1006.14 765 1011.5V1011.5L760.133 1017.58C758.082 1020.15 755.382 1022.12 752.314 1023.29L750.771 1023.87C748.001 1024.93 744.96 1025.04 742.118 1024.2L738.183 1023.04C735.074 1022.11 731.721 1023.24 729.803 1025.86V1025.86C728.355 1027.83 726.054 1029 723.606 1029H694.373C672.578 1029 652.216 1018.14 640.078 1000.04L519.592 820.357C517.785 817.662 519.041 813.986 522.119 812.96V812.96Z" fill="#FF733B"/>
<path d="M21 936.5L40 934H45.403C52.1113 934 58.7965 933.215 65.3224 931.661L87 926.5L119.716 913.777C121.902 912.927 124.023 911.916 126.059 910.752V910.752C133.229 906.655 141.343 904.5 149.601 904.5H159.284C166.247 904.5 173.03 902.286 178.652 898.177V898.177C181.531 896.073 184.734 894.452 188.135 893.378L214.802 884.957C218.91 883.66 223.192 883 227.5 883V883H238.673C247.177 883 255.635 881.739 263.769 879.257L281 874L300.297 866.15C307.071 863.395 313.466 859.786 319.328 855.412L344 837L351.891 831.871C353.267 830.976 354.874 830.5 356.515 830.5H362.755C363.995 830.5 365 831.505 365 832.745V832.745C365 834.55 367.022 835.616 368.512 834.597L373.473 831.202C374.149 830.74 374.711 830.131 375.117 829.42L381.549 818.164C383.508 814.737 385.914 811.586 388.706 808.794L389.796 807.704C391.261 806.239 392.876 804.931 394.614 803.801L398.792 801.085C400.886 799.724 403.329 799 405.827 799V799C408.846 799 411.77 797.941 414.09 796.008L415.587 794.761C418.115 792.654 421.303 791.5 424.594 791.5V791.5C426.832 791.5 429.038 790.966 431.029 789.942L436.75 787C442.5 784.043 448.873 782.5 455.339 782.5H455.5H467.425C470.054 782.5 472.595 781.555 474.584 779.837V779.837C479.014 776.011 485.668 776.344 489.694 780.593L491.5 782.5L501 791.5L513.746 802.315C516.245 804.435 518.578 806.744 520.725 809.221V809.221C522.905 811.736 524.886 814.418 526.651 817.241L535.291 831.066C537.76 835.016 540.545 838.758 543.619 842.256L546.825 845.905C551.26 850.951 555.088 856.499 558.231 862.436L565.691 876.528C569.544 883.805 574.421 890.491 580.175 896.381L585.056 901.379C590 906.44 595.549 910.872 601.578 914.574L621 926.5L651.412 951.453C657.114 956.132 662.19 961.524 666.516 967.498L681 987.5L708.309 1016.27C708.768 1016.76 709.283 1017.18 709.842 1017.55V1017.55C716.239 1021.7 714.317 1031.52 706.828 1032.96L705.732 1033.17C704.589 1033.39 703.499 1033.83 702.525 1034.47L695.988 1038.75C691.69 1041.57 686.971 1043.68 682.008 1045.01L669 1048.5L618.876 1054.87C612.975 1055.62 607.011 1055.76 601.081 1055.28L517.5 1048.5L445.5 1033.5L392 1029L365.275 1025.18C362.096 1024.73 358.888 1024.5 355.676 1024.5H343.133C339.443 1024.5 335.817 1023.53 332.621 1021.69V1021.69C327.452 1018.7 321.26 1018.06 315.587 1019.91L309.47 1021.9C304.229 1023.61 298.662 1024.07 293.21 1023.26L257.883 1017.96C253.764 1017.34 249.559 1018.21 246.026 1020.42V1020.42C241.868 1023.02 236.809 1023.75 232.084 1022.44L212.5 1017L146 998.5L112.631 990.158C105.896 988.474 98.7613 989.875 93.1631 993.98V993.98C89.1589 996.917 84.3228 998.5 79.3573 998.5H75.9135C71.6755 998.5 67.4751 997.705 63.5306 996.155L55.5 993V993C45.3441 989.396 36.3096 983.195 29.2965 975.013L25 970L11.5 955L7.08471 948.903C6.52911 948.135 5.9135 947.413 5.24366 946.744L1.76777 943.268C0.635885 942.136 0 940.601 0 939V939V939C0 938.428 0.423784 937.943 0.991228 937.868L7.5 937L21 936.5Z" fill="#FFC823"/>
</g>
<defs>
<clipPath id="clip0_681_4204">
<rect width="1728" height="1117" fill="white"/>
</clipPath>
</defs>
</svg>
