<svg width="724" height="1117" viewBox="0 0 724 1117" fill="none" xmlns="http://www.w3.org/2000/svg">
<g clip-path="url(#clip0_682_4264)">
<rect width="724" height="1117" fill="white"/>
<path fill-rule="evenodd" clip-rule="evenodd" d="M626.154 346.516C639.068 357.821 660.438 362.122 682.089 356.134C704.642 349.898 721.199 334.24 725.737 317.093C733.242 317.785 741.181 317.131 749.123 314.934C779.009 306.669 797.633 279.703 790.72 254.703C783.806 229.702 753.973 216.136 724.087 224.4C721.471 225.124 718.941 225.991 716.507 226.987C708.056 209.961 692.917 199.936 679.28 203.707C674.812 204.942 670.966 207.532 667.867 211.123C656.698 202.095 640.984 198.471 625.479 202.759C609.368 207.214 597.452 219.115 592.862 233.305C583.494 232.415 572.344 234.939 561.937 241.017C546.806 249.853 537.644 263.632 537.773 275.454C536.408 275.658 535.04 275.947 533.674 276.325C516.389 281.105 506.046 298.249 510.573 314.618C515.042 330.779 532.334 340.142 549.407 335.777C563.054 352.82 588.211 360.294 612.414 352.684C617.359 351.129 621.959 349.04 626.154 346.516Z" fill="#0002EA"/>
<path fill-rule="evenodd" clip-rule="evenodd" d="M108.444 69C82.0567 69 59.4483 83.867 49.9996 104.982C40.7217 98.1067 29.9556 94.173 18.474 94.173C-11.3451 94.173 -36.3382 120.706 -42.9687 156.39C-57.0517 158.331 -68 173.043 -68 190.903C-68 210.083 -55.373 225.632 -39.7969 225.632C-37.052 225.632 -34.3987 225.149 -31.8899 224.249C-20.3557 243.782 -2.08823 256.399 18.474 256.399C25.0486 256.399 31.3886 255.109 37.349 252.716C48.3647 269.716 68.5659 281.106 91.6623 281.106C111.997 281.106 130.087 272.277 141.641 258.564C148.664 261.641 156.734 263.392 165.317 263.392C192.478 263.392 214.497 245.86 214.497 224.234C214.497 218.885 213.151 213.788 210.713 209.144C228.108 198.135 239.67 178.631 239.67 156.406C239.67 122.036 212.016 94.173 177.903 94.173C172.406 94.173 167.076 94.8966 162.003 96.2545C150.834 79.8846 131.023 69 108.444 69Z" fill="#0002EA"/>
<path fill-rule="evenodd" clip-rule="evenodd" d="M494.757 107.255C489.396 111.634 482.783 114.221 475.628 114.221C467.321 114.221 459.744 110.735 454.011 105.005C449.152 107.485 443.468 108.91 437.393 108.91C419.503 108.91 405 96.5471 405 81.2964C405 66.0458 419.503 53.6826 437.393 53.6826C441.901 53.6826 446.194 54.4677 450.094 55.8861C456.023 47.4334 465.256 42 475.628 42C489.822 42 501.883 52.1767 506.261 66.3418C510.123 66.5009 514.104 67.4887 517.903 69.3831C530.584 75.7077 536.421 89.7421 530.941 100.73C525.461 111.717 510.739 115.498 498.058 109.173C496.899 108.595 495.798 107.953 494.757 107.255Z" fill="#0002EA"/>
<path fill-rule="evenodd" clip-rule="evenodd" d="M572.5 1013H-94V1117L946.525 1117H1135V1052.99H946.525V1117L572.5 1013Z" fill="#FFB47F"/>
<path d="M277.349 922.232C278.606 921.813 279.993 922.14 280.93 923.078L290.1 932.262C292.196 934.361 294.656 936.061 297.36 937.28L299.819 938.388C304.878 940.668 310.364 941.847 315.913 941.847H324.564H335.232H344.762C346.648 941.847 348.475 941.194 349.934 939.999V939.999C353.115 937.392 357.74 937.56 360.723 940.391L361.662 941.281C362.059 941.658 362.491 942.003 362.946 942.307V942.307C364.574 943.394 366.503 943.984 368.461 943.984H370.636C372.39 943.984 374.133 944.254 375.804 944.785L382.374 946.871C386.011 948.026 389.804 948.614 393.621 948.614V948.614C398.044 948.614 402.431 947.824 406.577 946.282L412.755 943.984L417.646 942.515C419.096 942.079 420.641 942.069 422.097 942.485V942.485C425.251 943.388 428.634 942.249 430.601 939.623L432.684 936.842C433.382 935.909 434.203 935.076 435.124 934.363L439.745 930.786C440.952 929.852 442.069 928.808 443.082 927.667L443.695 926.977C444.167 926.445 444.682 925.952 445.233 925.503L448.593 922.769C449.543 921.996 450.094 920.837 450.094 919.613V919.613C450.094 917.979 451.071 916.504 452.575 915.866L456.087 914.378C458.19 913.487 460.537 913.356 462.726 914.008L472.498 916.918L483.688 920.471C485.855 921.159 487.651 922.695 488.666 924.73V924.73C490.09 927.581 493.003 929.382 496.19 929.382H499.555C502.093 929.382 504.583 930.08 506.751 931.399L509.116 932.837C511.936 934.551 514.368 936.835 516.255 939.543L520.334 945.395C524.442 951.288 529.617 956.36 535.591 960.348L544.686 966.421L559.685 979.217C562.399 981.532 565.849 982.804 569.415 982.804V982.804C572.965 982.804 576.4 984.063 579.108 986.358L584.17 990.648C587.148 993.171 590.924 994.556 594.828 994.556V994.556H609.826C613.26 994.556 616.613 993.517 619.446 991.576V991.576C621.04 990.484 622.808 989.672 624.674 989.173L636.965 985.891C644.638 983.841 652.547 982.804 660.49 982.804H660.615V982.804C666.24 982.804 671.827 984.022 676.946 986.352V986.352C682.101 988.699 687.728 989.926 693.393 989.926H708.979H715.735H729.577C734.628 989.926 739.497 988.042 743.232 984.641V984.641C744.572 983.422 746.069 982.387 747.683 981.565L762.569 973.984C764.999 972.747 767.239 971.17 769.223 969.3L771.126 967.506C771.889 966.787 772.544 965.96 773.069 965.051V965.051C775 961.711 778.565 959.654 782.423 959.654H784.976C788.274 959.654 791.484 958.583 794.121 956.602L797.17 954.312L807.127 948.614L808.681 947.595C814.323 943.892 821.128 942.388 827.806 943.367V943.367C830.598 943.776 833.438 943.754 836.224 943.301L837.357 943.118C842.505 942.281 847.402 940.305 851.689 937.333L853.265 936.24C854.036 935.705 854.766 935.113 855.447 934.468L856.093 933.857C859.131 930.984 863.154 929.382 867.336 929.382V929.382C869.608 929.382 871.855 928.909 873.934 927.993L885.955 922.696C887.674 921.939 889.532 921.547 891.411 921.547V921.547C896.438 921.547 901.05 924.334 903.389 928.784L907.745 937.073C909.404 940.229 911.629 943.052 914.31 945.402L922.964 952.985C923.927 953.829 924.479 955.046 924.479 956.326V956.326C924.479 958.299 925.779 960.035 927.673 960.589L945.556 965.825C946.912 966.222 948.238 966.716 949.523 967.305L956.897 970.681C958.968 971.629 961.218 972.119 963.496 972.119H970.613C972.613 972.119 974.423 973.308 975.217 975.144V975.144C976.72 978.616 981.427 979.178 983.789 976.222V976.222C985.571 973.991 988.868 973.623 991.06 975.453L992.501 976.655C993.14 977.188 993.869 977.602 994.655 977.876L1001.37 980.224C1006.26 981.931 1011.4 982.804 1016.58 982.804V982.804H1026.92C1031.71 982.804 1036.32 984.59 1039.86 987.812V987.812C1041.4 989.212 1042.7 990.853 1043.71 992.669L1045.12 995.188C1048.74 1001.69 1054.51 1006.72 1061.43 1009.44L1062.23 1009.75C1065.44 1011.01 1068.84 1011.65 1072.28 1011.65V1011.65C1077.92 1011.65 1083.43 1013.38 1088.05 1016.61L1090.1 1018.04C1094.15 1020.87 1097.56 1024.52 1100.12 1028.74L1105.47 1037.57C1108.07 1041.87 1111.37 1045.69 1115.24 1048.89V1048.89C1122.09 1054.56 1127.13 1062.24 1129.67 1070.77V1070.77L1134 1081.47C1134.66 1083.11 1135 1084.85 1135 1086.62V1086.62V1086.62C1135 1088.34 1134.38 1090.01 1133.25 1091.31L1131.85 1092.92C1130.88 1094.05 1129.71 1095.01 1128.41 1095.74L1125.82 1097.19C1122.98 1098.78 1119.78 1099.62 1116.52 1099.62V1099.62C1113.93 1099.62 1111.37 1100.15 1108.99 1101.17L1099.79 1105.14C1091.35 1108.78 1082.25 1110.66 1073.05 1110.66H1054.1C1047.83 1110.66 1041.58 1111.25 1035.42 1112.42L1027.09 1114C1020.11 1115.33 1013 1115.91 1005.88 1115.73L918.078 1113.51L892.278 1111.31C887.2 1110.88 882.097 1110.83 877.012 1111.18L842.688 1113.51H800.372C791.893 1113.51 783.47 1112.13 775.434 1109.42L757.309 1103.32C749.579 1100.72 743.173 1095.19 739.463 1087.93V1087.93C738.113 1085.29 736.393 1082.85 734.355 1080.7L726.489 1072.37C725.485 1071.3 724.399 1070.32 723.242 1069.43L721.953 1068.44C717.921 1065.33 712.975 1063.65 707.886 1063.65V1063.65C704.393 1063.65 700.945 1062.85 697.804 1061.33L694.928 1059.93C691.771 1058.39 688.307 1057.59 684.797 1057.59V1057.59H683.524C673.99 1057.59 664.506 1058.96 655.358 1061.64L648.525 1063.65L641.838 1066C632.848 1069.16 623.387 1070.77 613.857 1070.77H607.461C601.692 1070.77 595.97 1071.8 590.56 1073.8V1073.8C585.151 1075.8 579.428 1076.82 573.66 1076.82H571.887C566.58 1076.82 561.297 1077.55 556.185 1078.97L545.431 1081.96C540.689 1083.28 535.79 1083.95 530.868 1083.95V1083.95C523.101 1083.95 515.425 1082.28 508.356 1079.06L503.436 1076.82L491.795 1072.52C488.732 1071.38 486.117 1069.29 484.339 1066.55V1066.55C483.099 1064.64 481.444 1063.03 479.497 1061.85L477.985 1060.93C474.396 1058.75 470.276 1057.59 466.076 1057.59H462.335C457.534 1057.59 453.008 1059.83 450.094 1063.65V1063.65L446.629 1067.98C445.173 1069.81 443.254 1071.21 441.073 1072.04L439.974 1072.46C438.004 1073.21 435.841 1073.29 433.819 1072.69L431.025 1071.87C428.812 1071.21 426.425 1072.01 425.061 1073.88V1073.88C424.032 1075.28 422.394 1076.11 420.651 1076.11H399.862C384.363 1076.11 369.885 1068.38 361.261 1055.5L275.551 927.494C274.267 925.576 275.16 922.963 277.349 922.232V922.232Z" fill="#FF733B"/>
<path d="M-86.7066 1012.41C-86.123 1012.46 -85.5353 1012.44 -84.9584 1012.33L-70.1928 1009.73C-67.1194 1009.19 -64.0046 1008.92 -60.8838 1008.92V1008.92C-56.6817 1008.92 -52.4941 1008.42 -48.4072 1007.45L-32.1732 1003.57L-8.92283 994.484C-7.36955 993.877 -5.86354 993.156 -4.41726 992.326V992.326C0.678242 989.401 6.45089 987.862 12.326 987.862H19.1815C24.1382 987.862 28.9657 986.281 32.9616 983.348V983.348C35.0064 981.847 37.2828 980.69 39.7007 979.923L58.6512 973.912C61.5692 972.987 64.6123 972.516 67.6735 972.516V972.516H71.8484C80.388 972.516 88.8799 971.244 97.0448 968.742L105.693 966.092L116.438 961.702C123.223 958.93 129.626 955.301 135.491 950.905L150.465 939.682L156.07 936.022C157.05 935.383 158.194 935.042 159.364 935.042H163.789C164.672 935.042 165.388 935.759 165.388 936.642V936.642C165.388 937.93 166.832 938.69 167.894 937.96L171.412 935.543C171.891 935.213 172.289 934.78 172.576 934.275L177.153 926.23C178.542 923.788 180.25 921.543 182.232 919.552L183.014 918.767C184.052 917.724 185.197 916.792 186.43 915.988L189.405 914.045C190.891 913.075 192.628 912.558 194.402 912.558V912.558C196.548 912.558 198.624 911.804 200.269 910.427L201.343 909.528C203.136 908.027 205.4 907.205 207.738 907.205V907.205C209.329 907.205 210.897 906.824 212.311 906.094L216.378 903.993C220.464 901.882 224.996 900.781 229.595 900.781H229.702H238.174C240.044 900.781 241.85 900.106 243.263 898.881V898.881C246.408 896.153 251.145 896.39 254.001 899.419L255.286 900.781L262.037 907.205L271.091 914.921C272.87 916.437 274.53 918.086 276.056 919.855V919.855C277.604 921.65 279.011 923.562 280.263 925.574L285.66 934.247C287.911 937.864 290.452 941.293 293.257 944.5V944.5C297.303 949.124 300.794 954.205 303.658 959.64L306.772 965.547C310.331 972.299 314.84 978.506 320.161 983.978V983.978C324.744 988.691 329.891 992.819 335.486 996.27L347.315 1003.57L366.46 1019.34C372.15 1024.03 377.214 1029.43 381.526 1035.42L389.955 1047.11L409.36 1067.64C409.688 1067.99 410.055 1068.29 410.454 1068.55V1068.55C415.011 1071.52 413.636 1078.53 408.296 1079.56L407.539 1079.7C406.721 1079.86 405.941 1080.18 405.245 1080.63L400.606 1083.69C397.552 1085.7 394.196 1087.21 390.666 1088.16L381.427 1090.65L348.413 1094.86C342.486 1095.62 336.496 1095.76 330.541 1095.27L273.763 1090.65L222.596 1079.94L184.576 1076.73L165.585 1074C163.325 1073.68 161.044 1073.52 158.761 1073.52H149.852C147.227 1073.52 144.65 1072.82 142.379 1071.51V1071.51C138.706 1069.38 134.301 1068.92 130.267 1070.24L125.926 1071.66C122.202 1072.88 118.244 1073.21 114.369 1072.63L89.2702 1068.85C86.3403 1068.41 83.3493 1069.03 80.8398 1070.6V1070.6C77.8855 1072.46 74.2861 1072.98 70.9262 1072.04L57.0138 1068.16L9.75533 1054.96L-13.947 1049.01C-18.7385 1047.8 -23.817 1048.8 -27.7947 1051.73V1051.73C-30.6389 1053.83 -34.0787 1054.96 -37.6112 1054.96H-40.0503C-43.0628 1054.96 -46.0484 1054.39 -48.8508 1053.28L-54.5588 1051.03V1051.03C-61.7757 1048.46 -68.1914 1044.04 -73.1648 1038.21L-76.2337 1034.61L-85.8275 1023.91L-89.5584 1018.73L-93.4189 1014.24C-93.7939 1013.8 -94 1013.24 -94 1012.67V1012.67V1012.67C-94 1012.19 -93.589 1011.81 -93.1112 1011.85L-86.7066 1012.41Z" fill="#FFC823"/>
</g>
<defs>
<clipPath id="clip0_682_4264">
<rect width="724" height="1117" fill="white"/>
</clipPath>
</defs>
</svg>
