<svg width="64" height="64" viewBox="0 0 64 64" fill="none" xmlns="http://www.w3.org/2000/svg">
<mask id="path-1-inside-1_702_4450" fill="white">
<path fill-rule="evenodd" clip-rule="evenodd" d="M24.7143 10.2857C26.8445 10.2857 28.5714 12.0126 28.5714 14.1428V24.5445L22.2176 27.9818C21.6481 28.2899 21.1946 28.7017 20.8571 29.1749V14.1428C20.8571 12.0126 22.584 10.2857 24.7143 10.2857ZM20.8571 33.8251V48.8571C20.8571 50.9874 22.584 52.7143 24.7143 52.7143C26.8445 52.7143 28.5714 50.9874 28.5714 48.8571V38.4555L22.2176 35.0182C21.6481 34.7101 21.1946 34.2983 20.8571 33.8251ZM32.4286 40.5421V46.9286C32.4286 50.1239 35.0189 52.7143 38.2143 52.7143C41.4097 52.7143 44 50.1239 44 46.9286V46.8021L32.4286 40.5421ZM44 16.1979V16.0714C44 12.8761 41.4097 10.2857 38.2143 10.2857C35.0189 10.2857 32.4286 12.8761 32.4286 16.0714V22.4578L44 16.1979Z"/>
</mask>
<path fill-rule="evenodd" clip-rule="evenodd" d="M24.7143 10.2857C26.8445 10.2857 28.5714 12.0126 28.5714 14.1428V24.5445L22.2176 27.9818C21.6481 28.2899 21.1946 28.7017 20.8571 29.1749V14.1428C20.8571 12.0126 22.584 10.2857 24.7143 10.2857ZM20.8571 33.8251V48.8571C20.8571 50.9874 22.584 52.7143 24.7143 52.7143C26.8445 52.7143 28.5714 50.9874 28.5714 48.8571V38.4555L22.2176 35.0182C21.6481 34.7101 21.1946 34.2983 20.8571 33.8251ZM32.4286 40.5421V46.9286C32.4286 50.1239 35.0189 52.7143 38.2143 52.7143C41.4097 52.7143 44 50.1239 44 46.9286V46.8021L32.4286 40.5421ZM44 16.1979V16.0714C44 12.8761 41.4097 10.2857 38.2143 10.2857C35.0189 10.2857 32.4286 12.8761 32.4286 16.0714V22.4578L44 16.1979Z" fill="white"/>
<path d="M28.5714 24.5445L29.9989 27.1831L31.5714 26.3324V24.5445H28.5714ZM22.2176 27.9818L20.7901 25.3432L20.7901 25.3432L22.2176 27.9818ZM20.8571 29.1749H17.8571V38.5489L23.2997 30.9167L20.8571 29.1749ZM20.8571 33.8251L23.2997 32.0832L17.8571 24.4511V33.8251H20.8571ZM28.5714 38.4555H31.5714V36.6676L29.9989 35.8169L28.5714 38.4555ZM22.2176 35.0182L20.7901 37.6568L20.7901 37.6568L22.2176 35.0182ZM32.4286 40.5421L33.856 37.9035L29.4286 35.5083V40.5421H32.4286ZM44 46.8021H47V45.0142L45.4275 44.1635L44 46.8021ZM44 16.1979L45.4275 18.8365L47 17.9858V16.1979H44ZM32.4286 22.4578H29.4286V27.4916L33.856 25.0965L32.4286 22.4578ZM31.5714 14.1428C31.5714 10.3558 28.5014 7.28571 24.7143 7.28571V13.2857C25.1877 13.2857 25.5714 13.6695 25.5714 14.1428H31.5714ZM31.5714 24.5445V14.1428H25.5714V24.5445H31.5714ZM23.645 30.6204L29.9989 27.1831L27.144 21.9059L20.7901 25.3432L23.645 30.6204ZM23.2997 30.9167C23.3733 30.8135 23.4805 30.7095 23.645 30.6204L20.7901 25.3432C19.8157 25.8703 19.0159 26.5899 18.4146 27.4331L23.2997 30.9167ZM17.8571 14.1428V29.1749H23.8571V14.1428H17.8571ZM24.7143 7.28571C20.9272 7.28571 17.8571 10.3558 17.8571 14.1428H23.8571C23.8571 13.6695 24.2409 13.2857 24.7143 13.2857V7.28571ZM17.8571 33.8251V48.8571H23.8571V33.8251H17.8571ZM17.8571 48.8571C17.8571 52.6442 20.9272 55.7143 24.7143 55.7143V49.7143C24.2409 49.7143 23.8571 49.3305 23.8571 48.8571H17.8571ZM24.7143 55.7143C28.5014 55.7143 31.5714 52.6442 31.5714 48.8571H25.5714C25.5714 49.3305 25.1877 49.7143 24.7143 49.7143V55.7143ZM31.5714 48.8571V38.4555H25.5714V48.8571H31.5714ZM29.9989 35.8169L23.645 32.3795L20.7901 37.6568L27.144 41.0941L29.9989 35.8169ZM23.645 32.3795C23.4805 32.2905 23.3733 32.1865 23.2997 32.0832L18.4146 35.5669C19.0159 36.4101 19.8157 37.1296 20.7901 37.6568L23.645 32.3795ZM29.4286 40.5421V46.9286H35.4286V40.5421H29.4286ZM29.4286 46.9286C29.4286 51.7808 33.3621 55.7143 38.2143 55.7143V49.7143C36.6758 49.7143 35.4286 48.4671 35.4286 46.9286H29.4286ZM38.2143 55.7143C43.0665 55.7143 47 51.7808 47 46.9286H41C41 48.4671 39.7528 49.7143 38.2143 49.7143V55.7143ZM47 46.9286V46.8021H41V46.9286H47ZM45.4275 44.1635L33.856 37.9035L31.0011 43.1808L42.5725 49.4407L45.4275 44.1635ZM47 16.1979V16.0714H41V16.1979H47ZM47 16.0714C47 11.2192 43.0665 7.28571 38.2143 7.28571V13.2857C39.7528 13.2857 41 14.5329 41 16.0714H47ZM38.2143 7.28571C33.3621 7.28571 29.4286 11.2192 29.4286 16.0714H35.4286C35.4286 14.5329 36.6758 13.2857 38.2143 13.2857V7.28571ZM29.4286 16.0714V22.4578H35.4286V16.0714H29.4286ZM33.856 25.0965L45.4275 18.8365L42.5725 13.5593L31.0011 19.8192L33.856 25.0965Z" fill="white" mask="url(#path-1-inside-1_702_4450)"/>
</svg>
