<svg width="31" height="45" viewBox="0 0 31 45" fill="none" xmlns="http://www.w3.org/2000/svg">
<mask id="path-1-inside-1_167_9334" fill="white">
<path fill-rule="evenodd" clip-rule="evenodd" d="M7.71429 1.28571C9.84453 1.28571 11.5714 3.01261 11.5714 5.14285V15.5445L5.21758 18.9818C4.6481 19.2899 4.19462 19.7017 3.85715 20.1749V5.14285C3.85715 3.01261 5.58405 1.28571 7.71429 1.28571ZM3.85715 24.8251V39.8571C3.85715 41.9874 5.58405 43.7143 7.71429 43.7143C9.84453 43.7143 11.5714 41.9874 11.5714 39.8571V29.4555L5.21758 26.0182C4.6481 25.7101 4.19462 25.2983 3.85715 24.8251ZM15.4286 31.5421V37.9286C15.4286 41.1239 18.0189 43.7143 21.2143 43.7143C24.4097 43.7143 27 41.1239 27 37.9286V37.8021L15.4286 31.5421ZM27 7.19788V7.07142C27 3.87606 24.4097 1.28571 21.2143 1.28571C18.0189 1.28571 15.4286 3.87606 15.4286 7.07142V13.4578L27 7.19788Z"/>
</mask>
<path fill-rule="evenodd" clip-rule="evenodd" d="M7.71429 1.28571C9.84453 1.28571 11.5714 3.01261 11.5714 5.14285V15.5445L5.21758 18.9818C4.6481 19.2899 4.19462 19.7017 3.85715 20.1749V5.14285C3.85715 3.01261 5.58405 1.28571 7.71429 1.28571ZM3.85715 24.8251V39.8571C3.85715 41.9874 5.58405 43.7143 7.71429 43.7143C9.84453 43.7143 11.5714 41.9874 11.5714 39.8571V29.4555L5.21758 26.0182C4.6481 25.7101 4.19462 25.2983 3.85715 24.8251ZM15.4286 31.5421V37.9286C15.4286 41.1239 18.0189 43.7143 21.2143 43.7143C24.4097 43.7143 27 41.1239 27 37.9286V37.8021L15.4286 31.5421ZM27 7.19788V7.07142C27 3.87606 24.4097 1.28571 21.2143 1.28571C18.0189 1.28571 15.4286 3.87606 15.4286 7.07142V13.4578L27 7.19788Z" fill="white"/>
<path d="M11.5714 15.5445L12.9989 18.1831L14.5714 17.3324V15.5445H11.5714ZM5.21758 18.9818L3.79012 16.3432L3.79012 16.3432L5.21758 18.9818ZM3.85715 20.1749H0.857147V29.5489L6.29971 21.9167L3.85715 20.1749ZM3.85715 24.8251L6.29971 23.0832L0.857147 15.4511L0.857147 24.8251H3.85715ZM11.5714 29.4555H14.5714V27.6676L12.9989 26.8169L11.5714 29.4555ZM5.21758 26.0182L3.79012 28.6568L3.79012 28.6568L5.21758 26.0182ZM15.4286 31.5421L16.856 28.9035L12.4286 26.5083V31.5421H15.4286ZM27 37.8021H30V36.0142L28.4275 35.1635L27 37.8021ZM27 7.19788L28.4275 9.83651L30 8.98579V7.19788H27ZM15.4286 13.4578H12.4286V18.4916L16.856 16.0965L15.4286 13.4578ZM14.5714 5.14285C14.5714 1.35575 11.5014 -1.71429 7.71429 -1.71429V4.28571C8.18768 4.28571 8.57143 4.66946 8.57143 5.14285H14.5714ZM14.5714 15.5445V5.14285H8.57143V15.5445H14.5714ZM6.64504 21.6204L12.9989 18.1831L10.144 12.9059L3.79012 16.3432L6.64504 21.6204ZM6.29971 21.9167C6.37334 21.8135 6.48048 21.7095 6.64504 21.6204L3.79012 16.3432C2.81571 16.8703 2.0159 17.5899 1.41459 18.4331L6.29971 21.9167ZM0.857147 5.14285V20.1749H6.85715V5.14285H0.857147ZM7.71429 -1.71429C3.9272 -1.71429 0.857147 1.35575 0.857147 5.14285H6.85715C6.85715 4.66946 7.2409 4.28571 7.71429 4.28571V-1.71429ZM0.857147 24.8251V39.8571H6.85715V24.8251H0.857147ZM0.857147 39.8571C0.857147 43.6442 3.9272 46.7143 7.71429 46.7143V40.7143C7.2409 40.7143 6.85715 40.3305 6.85715 39.8571H0.857147ZM7.71429 46.7143C11.5014 46.7143 14.5714 43.6442 14.5714 39.8571H8.57143C8.57143 40.3305 8.18768 40.7143 7.71429 40.7143V46.7143ZM14.5714 39.8571V29.4555H8.57143V39.8571H14.5714ZM12.9989 26.8169L6.64503 23.3795L3.79012 28.6568L10.144 32.0941L12.9989 26.8169ZM6.64504 23.3795C6.48048 23.2905 6.37334 23.1865 6.29971 23.0832L1.41459 26.5669C2.0159 27.4101 2.81571 28.1296 3.79012 28.6568L6.64504 23.3795ZM12.4286 31.5421V37.9286H18.4286V31.5421H12.4286ZM12.4286 37.9286C12.4286 42.7808 16.3621 46.7143 21.2143 46.7143V40.7143C19.6758 40.7143 18.4286 39.4671 18.4286 37.9286H12.4286ZM21.2143 46.7143C26.0665 46.7143 30 42.7808 30 37.9286H24C24 39.4671 22.7528 40.7143 21.2143 40.7143V46.7143ZM30 37.9286V37.8021H24V37.9286H30ZM28.4275 35.1635L16.856 28.9035L14.0011 34.1808L25.5725 40.4407L28.4275 35.1635ZM30 7.19788V7.07142H24V7.19788H30ZM30 7.07142C30 2.21921 26.0665 -1.71429 21.2143 -1.71429V4.28571C22.7528 4.28571 24 5.53291 24 7.07142H30ZM21.2143 -1.71429C16.3621 -1.71429 12.4286 2.2192 12.4286 7.07142H18.4286C18.4286 5.53291 19.6758 4.28571 21.2143 4.28571V-1.71429ZM12.4286 7.07142V13.4578H18.4286V7.07142H12.4286ZM16.856 16.0965L28.4275 9.83651L25.5725 4.55925L14.0011 10.8192L16.856 16.0965Z" fill="white" mask="url(#path-1-inside-1_167_9334)"/>
</svg>
